<?xml version="1.0" encoding="UTF-8"?>
<svg id="Layer_1" data-name="Layer 1" xmlns="http://www.w3.org/2000/svg" viewBox="0 0 256 256">
  <defs>
    <style>
      .cls-1, .cls-2, .cls-3 {
        fill: #fff;
      }

      .cls-4 {
        fill: #7e191d;
      }

      .cls-5 {
        fill: #28437d;
      }

      .cls-6 {
        fill: #26427a;
      }

      .cls-2 {
        stroke: #26427a;
        stroke-width: 10px;
      }

      .cls-2, .cls-3 {
        stroke-miterlimit: 10;
      }

      .cls-3 {
        stroke: #7e191d;
        stroke-width: 3px;
      }
    </style>
  </defs>
  <circle class="cls-2" cx="127.7" cy="127.93" r="119.78"/>
  <circle class="cls-3" cx="127.7" cy="127.93" r="113.6"/>
  <g>
    <g>
      <path class="cls-4" d="M165.56,65.93s-.05,0-.07,0c.01,.17,.02,.34,.03,.51,.08-.11,.12-.26,.05-.51Z"/>
      <path class="cls-4" d="M206.91,116.77c-.38-4.35-1.06-8.64-2.09-12.87-1.82-7.5-4.67-14.6-8.5-21.3-3.48-6.08-7.62-11.68-12.48-16.72-5.35-5.56-11.41-10.24-18.06-14.14-6.61-3.88-13.63-6.76-21.06-8.65-.38-.1-.75-.34-1.2,.02,.97,.47,1.9,.92,2.84,1.37,3.03,1.45,5.91,3.08,8.67,4.87,.94,.53,1.84,1.14,2.69,1.81,6.19,4.4,11.64,9.7,16.35,15.9,4.31,5.68,7.72,11.86,10.28,18.54,2.81,7.34,4.39,14.92,4.87,22.72,.21,3.41,.12,6.84-.19,10.27-.46,5.11-1.34,10.11-2.76,15.04-3.1,10.74-8.37,20.29-15.72,28.65-4.82,5.48-10.32,10.23-16.54,14.09-1.88,1.16-3.84,2.19-5.75,3.3-.61,.35-1.04,.32-1.43-.33-.33-.54-.76-1.03-1.14-1.54-2.5-3.36-4.76-6.86-6.81-10.52-2.21-3.97-4.19-8.04-5.76-12.3-1.83-4.97-3.25-10.06-4.07-15.29-.46-2.92-.91-5.85-.83-8.83,.06-2.15,.05-4.31,.01-6.46-.07-3.69,.58-7.29,1.36-10.86,1.41-6.45,3.66-12.59,6.9-18.36,2.92-5.2,6.42-9.95,10.51-14.27,5.03-5.31,10.76-9.75,17.01-13.51h-42.23c-.11,.2-.43,.23-1.11,.31-2.72,.3-5.45,.32-8.18,.35-.4,0-.81,.04-1.21,.12-1.24,.26-1.24,.33-1.06,1.64,.42,2.98,.96,5.97,1.15,8.97,.25,4.18-.01,8.35-.59,12.51-1.05,7.57-3.47,14.69-6.93,21.46-2.98,5.82-6.7,11.16-11.09,16-4.86,5.35-10.26,10.12-16.23,14.21-5.38,3.69-11.02,6.92-17.01,9.52-2.08,.9-4.19,1.73-6.28,2.61-.82,.35-1.47,.25-1.89-.61-.05-.1-.13-.19-.19-.29-4-6.05-7.16-12.49-9.22-19.46-.1-.35-.09-.81-.73-1.15,.85,8.21,3.06,15.9,6.21,23.35-1.22,.73-2.46,.83-3.61,1.2-.15,.05-.28,.09-.41,.13-.05,.1-.1,.2-.17,.29-.1,.13-.22,.25-.33,.37,.13,.08,.24,.18,.34,.29,1.1-.09,2.2-.19,3.28-.35,1.3-.19,2,.36,2.53,1.53,1.54,3.39,3.44,6.6,5.54,9.67,4.12,6.01,8.8,11.53,14.33,16.33,4.77,4.14,9.89,7.73,15.42,10.73,6.57,3.56,13.52,6.15,20.82,7.85,4.54,1.06,9.13,1.75,13.76,1.99,3.94,.21,7.89,.15,11.84-.18,4.53-.38,8.98-1.13,13.38-2.19,2.14-.52,4.24-1.24,6.34-1.89,.59-.18,1.1-.32,1.56,.29,.86,1.14,1.82,2.2,2.5,3.46,.62,1.15,1.85,2.24,2.6,3.36,1.06,1.58,2.08,3.2,3.06,4.83,1.9,3.18,3.63,6.47,5.19,9.83,.62,1.34,1.18,2.97,2.88,2.85,2.61-.19,5.22-.29,7.83-.43,.24-.01,.44-.13,.5-.45,.14-.71-4.42-4.94-5.01-5.63-1.81-2.09-3.58-4.22-5.2-6.46-2.91-4.03-5.49-8.42-7.96-12.71-.79-1.37-.7-1.65,.76-2.37,2.92-1.45,5.83-2.9,8.59-4.64,7.19-4.51,13.59-9.93,19.14-16.37,3.89-4.51,7.29-9.35,10.13-14.57,3.82-7.04,6.61-14.47,8.31-22.3,.9-4.15,1.55-8.34,1.74-12.57,.18-4,.17-8-.18-12.02ZM54.54,158.64c21.58-1.04,53.61,5.78,79.44,26.47-30.7,8.51-62.51-3.63-79.44-26.47Z"/>
    </g>
    <g>
      <path class="cls-5" d="M31.66,148.05l-.66-3.13,2.09-.44c.61-.13,.98-.24,1.12-.34s.18-.26,.13-.49c-.05-.26-.18-.4-.38-.43s-.6,.02-1.21,.14l-5.59,1.17c-.59,.12-.96,.24-1.12,.34-.16,.11-.22,.28-.17,.52,.05,.23,.17,.37,.36,.4,.19,.03,.62-.02,1.28-.16l1.51-.32,.66,3.13-.47,.1c-1.25,.26-2.15,.36-2.71,.29s-1.1-.36-1.62-.88c-.52-.52-.87-1.22-1.05-2.11-.19-.92-.18-1.71,.02-2.37,.21-.66,.59-1.16,1.13-1.47s1.41-.6,2.59-.84l3.52-.74c.87-.18,1.53-.29,1.97-.32,.45-.03,.9,.06,1.36,.27,.46,.21,.87,.55,1.21,1.03s.58,1.05,.72,1.73c.19,.92,.17,1.72-.06,2.4-.23,.67-.59,1.16-1.09,1.46-.49,.3-1.3,.57-2.43,.8l-1.14,.24Z"/>
      <path class="cls-5" d="M34.03,157.19l-2.35,.75c-.86,.28-1.51,.43-1.94,.47-.43,.04-.87-.02-1.31-.2-.44-.17-.82-.46-1.12-.85s-.56-.88-.74-1.46c-.21-.65-.31-1.22-.31-1.71,0-.49,.1-.91,.31-1.25s.5-.63,.87-.86,.97-.48,1.79-.74l2.46-.78c.89-.28,1.62-.41,2.19-.38s1.08,.25,1.54,.66,.82,1,1.07,1.78c.21,.66,.29,1.25,.24,1.78s-.18,.98-.42,1.33-.5,.63-.8,.83-.8,.41-1.48,.63Zm-.21-3.16c.49-.16,.79-.28,.91-.38,.11-.09,.14-.23,.08-.4-.06-.17-.16-.27-.3-.29-.15-.02-.47,.05-.96,.21l-4.34,1.38c-.45,.14-.74,.27-.86,.37s-.15,.24-.1,.41c.06,.17,.15,.27,.3,.28,.14,.02,.42-.04,.84-.18l4.43-1.41Z"/>
      <path class="cls-5" d="M41.45,160.17l-11.4,4.64-1.19-2.93,11.4-4.64,1.19,2.93Z"/>
      <path class="cls-5" d="M43.64,164.91l-11.11,5.29-1.36-2.85,11.11-5.29,1.36,2.85Z"/>
      <path class="cls-5" d="M41.54,176.48l-1.98-3.44-1.89,1.09c-.4,.23-.63,.4-.71,.53-.08,.12-.08,.27,.02,.43,.12,.2,.27,.29,.46,.27s.5-.15,.94-.4l1.15-.66,1.45,2.52-.65,.37c-.54,.31-.97,.52-1.3,.62-.33,.1-.73,.12-1.2,.06-.47-.06-.9-.24-1.29-.52-.39-.29-.75-.72-1.08-1.3-.32-.56-.53-1.1-.61-1.63-.09-.52-.06-.99,.09-1.39,.15-.4,.36-.75,.65-1.04,.29-.29,.76-.62,1.41-.99l2.55-1.47c.76-.44,1.43-.68,1.99-.73,.56-.05,1.09,.1,1.6,.43,.51,.33,.93,.81,1.29,1.42,.43,.75,.64,1.44,.64,2.09,0,.65-.18,1.2-.54,1.67s-.96,.94-1.8,1.43l-1.16,.67Zm-.11-3.49l.64-.37c.45-.26,.73-.45,.83-.58s.11-.26,.03-.41c-.11-.18-.23-.27-.37-.25s-.45,.17-.94,.46l-.64,.37,.45,.78Z"/>
      <path class="cls-5" d="M51.26,181.31l-6.32,4.52c-.85,.61-1.42,.98-1.7,1.12-.28,.14-.64,.19-1.09,.15s-.9-.22-1.35-.54c-.45-.32-.91-.81-1.37-1.45-.57-.8-.89-1.53-.97-2.21s.28-1.3,1.06-1.89l1.73,2.42c-.36,.26-.45,.52-.26,.78,.14,.19,.28,.28,.44,.26,.16-.02,.41-.15,.77-.41l.62-.44c-.35-.08-.66-.2-.92-.36-.27-.17-.5-.38-.68-.64-.32-.45-.5-.88-.52-1.3-.03-.42,.07-.79,.29-1.11,.22-.32,.6-.67,1.14-1.06l2.98-2.13c.78-.56,1.44-.82,1.98-.78s1.02,.34,1.43,.91c.22,.31,.36,.64,.42,.99,.06,.35,.03,.72-.08,1.1l.75-.26,1.66,2.32Zm-3.97-.95c.37-.27,.6-.46,.67-.58,.07-.12,.06-.25-.05-.4-.1-.14-.23-.2-.4-.18-.16,.02-.41,.16-.76,.41l-2.76,1.97c-.37,.26-.59,.46-.67,.58-.08,.12-.06,.26,.04,.4,.12,.16,.26,.22,.43,.18,.17-.04,.48-.23,.95-.57l2.54-1.82Z"/>
      <path class="cls-5" d="M53.28,191.71l-2.62-2.99-1.64,1.44c-.34,.3-.54,.52-.6,.65s-.02,.28,.1,.42c.15,.18,.32,.24,.51,.18,.18-.06,.46-.25,.84-.58l1-.88,1.92,2.19-.56,.49c-.47,.41-.86,.7-1.16,.86-.3,.16-.69,.26-1.17,.29s-.93-.05-1.37-.26c-.43-.21-.87-.56-1.31-1.07-.43-.49-.73-.98-.92-1.48-.19-.5-.25-.96-.18-1.38,.06-.42,.21-.8,.43-1.14s.62-.75,1.19-1.25l2.21-1.94c.66-.58,1.27-.95,1.81-1.1,.54-.16,1.09-.12,1.65,.11,.56,.23,1.07,.61,1.54,1.14,.57,.65,.91,1.29,1.03,1.93,.12,.64,.06,1.22-.2,1.74-.26,.52-.75,1.11-1.49,1.75l-1.01,.88Zm-.79-3.4l.55-.49c.39-.34,.63-.59,.71-.73,.08-.14,.06-.28-.05-.41-.14-.16-.28-.22-.41-.17-.13,.05-.41,.26-.84,.63l-.55,.49,.59,.67Z"/>
      <path class="cls-5" d="M64.36,199.69l-1.62,1.87c-.59,.69-1.06,1.16-1.41,1.42s-.75,.43-1.22,.51c-.47,.08-.93,.04-1.4-.14s-.93-.46-1.39-.86c-.51-.44-.9-.88-1.16-1.3s-.39-.83-.39-1.23c0-.4,.1-.8,.29-1.19,.2-.4,.57-.92,1.14-1.57l1.69-1.95c.61-.71,1.17-1.2,1.67-1.46s1.05-.35,1.66-.24c.61,.1,1.22,.42,1.84,.96,.52,.45,.9,.92,1.14,1.39,.24,.48,.35,.93,.34,1.36-.01,.42-.1,.8-.25,1.13-.15,.33-.47,.76-.93,1.3Zm-1.82-2.59c.34-.39,.53-.66,.58-.79,.05-.14,0-.27-.14-.39-.14-.12-.27-.15-.41-.09s-.37,.29-.71,.68l-2.98,3.44c-.31,.36-.49,.61-.54,.76s0,.28,.13,.4c.14,.12,.27,.15,.4,.09,.13-.06,.34-.26,.62-.59l3.05-3.52Z"/>
      <path class="cls-5" d="M72.84,198.81l-.92,1.25c-.51-.38-.83-.57-.95-.59-.13-.02-.27,.08-.43,.3l-.19,.26,1.04,.77-.95,1.28-.59-.43-4.89,6.64-2.47-1.82,4.89-6.64-.51-.37,.95-1.28,.51,.37c.39-.53,.68-.88,.84-1.03,.17-.15,.38-.25,.63-.28,.25-.03,.53,0,.85,.13,.32,.12,.75,.38,1.3,.79l.91,.67Z"/>
      <path class="cls-5" d="M80.1,203.38l-6.26,10.59-2.76-1.63,6.26-10.6,2.76,1.63Z"/>
      <path class="cls-5" d="M83.76,207.81l-.45,.81c.36-.24,.73-.37,1.1-.39,.37-.03,.74,.05,1.12,.24,.47,.23,.81,.53,1,.9,.19,.37,.25,.75,.17,1.13-.08,.38-.31,.97-.7,1.76l-3.1,6.35-2.76-1.35,3.06-6.28c.3-.62,.47-1.01,.49-1.17s-.06-.28-.24-.37c-.2-.1-.36-.08-.48,.06s-.36,.54-.69,1.22l-2.99,6.13-2.76-1.34,4.42-9.07,2.81,1.37Z"/>
      <path class="cls-5" d="M93.78,209.7l-.57,1.45c-.59-.23-.95-.34-1.08-.33-.13,.01-.24,.15-.34,.4l-.12,.3,1.2,.47-.58,1.49-.68-.27-3,7.68-2.86-1.12,3-7.68-.59-.23,.58-1.49,.59,.23c.24-.62,.42-1.02,.55-1.21s.3-.34,.53-.43c.23-.1,.51-.13,.85-.1,.34,.03,.82,.17,1.46,.42l1.05,.41Z"/>
      <path class="cls-5" d="M100.16,217.76l-.71,2.36c-.26,.87-.5,1.49-.71,1.87-.21,.38-.51,.7-.9,.97-.39,.27-.84,.41-1.34,.45-.5,.03-1.04-.04-1.62-.22-.65-.2-1.18-.43-1.59-.71-.41-.28-.69-.6-.86-.97-.16-.36-.24-.77-.22-1.21,.02-.44,.15-1.07,.4-1.89l.75-2.47c.27-.9,.58-1.57,.93-2.02s.82-.75,1.41-.9c.6-.15,1.29-.11,2.07,.13,.66,.2,1.2,.47,1.61,.81,.41,.34,.7,.71,.86,1.1,.16,.39,.24,.77,.23,1.13,0,.36-.11,.89-.32,1.57Zm-2.72-1.62c.15-.49,.22-.81,.2-.96-.01-.14-.11-.24-.28-.3-.17-.05-.31-.02-.41,.09s-.22,.41-.37,.91l-1.32,4.36c-.14,.46-.2,.76-.18,.92,.02,.16,.11,.26,.28,.31,.17,.05,.31,.02,.4-.08,.09-.11,.2-.37,.33-.79l1.35-4.45Z"/>
      <path class="cls-5" d="M106.26,215.48l-.39,1.27c.63-.84,1.37-1.2,2.21-1.08l-.73,3.47c-.55-.12-.97-.13-1.26-.03-.29,.09-.49,.27-.61,.52-.12,.25-.27,.86-.48,1.81l-.82,3.9-3-.63,2.08-9.87,3,.63Z"/>
      <path class="cls-5" d="M112.79,216.58l-.15,.95c.28-.35,.59-.61,.93-.77s.73-.21,1.15-.17c.82,.08,1.42,.53,1.81,1.33,.3-.35,.61-.61,.96-.76s.71-.22,1.1-.18c.52,.05,.94,.22,1.25,.51,.31,.29,.5,.62,.56,.99,.06,.38,.05,.97-.04,1.8l-.72,7.13-2.96-.3,.66-6.54c.09-.86,.11-1.39,.07-1.6s-.16-.33-.37-.35c-.22-.02-.37,.06-.45,.26-.08,.2-.17,.72-.26,1.59l-.66,6.54-2.96-.3,.65-6.37c.1-.98,.14-1.58,.11-1.78s-.15-.31-.37-.34c-.14-.01-.26,.03-.36,.12-.11,.09-.17,.21-.2,.36s-.06,.46-.11,.95l-.71,6.96-2.96-.3,1.02-10.03,3.02,.31Z"/>
      <path class="cls-5" d="M125.64,221.2l-2.88,.05v-.68c-.02-.78,.06-1.38,.23-1.81,.17-.43,.53-.81,1.06-1.14s1.24-.51,2.1-.52c1.04-.02,1.82,.15,2.36,.51,.53,.36,.86,.8,.97,1.34s.19,1.63,.21,3.3l.08,5.06-2.99,.05v-.9c-.2,.36-.43,.64-.73,.82s-.65,.28-1.06,.29c-.54,0-1.03-.13-1.49-.43-.45-.29-.69-.95-.7-1.97v-.83c-.03-.75,.08-1.27,.32-1.55,.23-.28,.82-.61,1.76-.99,1-.41,1.54-.69,1.61-.82,.07-.14,.1-.42,.09-.84,0-.53-.05-.87-.13-1.03-.08-.16-.21-.24-.4-.23-.21,0-.34,.07-.38,.21-.05,.13-.07,.48-.06,1.05l.02,1.06Zm1,1.37c-.49,.37-.77,.67-.84,.92-.07,.24-.11,.59-.1,1.05,0,.52,.05,.86,.12,1.01,.07,.15,.21,.22,.41,.22,.19,0,.32-.06,.37-.18,.06-.12,.08-.43,.07-.94l-.03-2.07Z"/>
      <path class="cls-5" d="M134.86,215.4l.15,1.58,.82-.08,.15,1.59-.82,.08,.51,5.37c.06,.66,.13,1.03,.21,1.1,.08,.07,.36,.08,.86,.03l.15,1.62-1.23,.12c-.7,.07-1.2,.09-1.5,.06-.3-.03-.58-.14-.83-.33s-.41-.41-.49-.68c-.08-.26-.17-.9-.27-1.89l-.49-5.1-.66,.06-.15-1.59,.66-.06-.15-1.58,3.06-.29Z"/>
      <path class="cls-5" d="M140.34,213.74l.25,1.58-3.12,.49-.25-1.58,3.12-.49Zm.34,2.19l1.56,9.96-3.12,.49-1.56-9.96,3.12-.49Z"/>
      <path class="cls-5" d="M150.44,217.42l.57,2.4c.21,.88,.32,1.54,.33,1.97,0,.43-.09,.86-.29,1.29s-.52,.78-.93,1.06c-.42,.28-.92,.49-1.51,.63-.66,.16-1.24,.22-1.73,.18-.49-.04-.9-.17-1.23-.4-.32-.23-.59-.54-.8-.94-.21-.39-.41-1-.61-1.84l-.6-2.51c-.22-.91-.29-1.65-.21-2.21s.33-1.06,.77-1.49c.44-.43,1.06-.74,1.86-.93,.67-.16,1.27-.2,1.8-.11,.53,.09,.96,.26,1.3,.52,.34,.26,.59,.55,.77,.86,.18,.32,.35,.82,.51,1.52Zm-3.16-.03c-.12-.5-.22-.81-.31-.93s-.22-.16-.39-.11c-.18,.04-.28,.14-.31,.28-.03,.14,.02,.47,.14,.97l1.05,4.43c.11,.46,.21,.76,.3,.88,.09,.13,.22,.17,.4,.13,.18-.04,.28-.13,.31-.28s-.01-.42-.11-.85l-1.08-4.53Z"/>
      <path class="cls-5" d="M154.6,212.36l.25,.9c.09-.42,.26-.77,.5-1.05s.56-.49,.96-.63c.5-.17,.95-.2,1.34-.07,.4,.13,.7,.35,.92,.68,.21,.33,.47,.9,.75,1.74l2.31,6.68-2.9,1-2.28-6.6c-.23-.66-.39-1.05-.48-1.18-.09-.13-.24-.16-.43-.09-.21,.07-.31,.2-.3,.38s.13,.63,.38,1.35l2.23,6.44-2.9,1-3.3-9.53,2.95-1.02Z"/>
      <path class="cls-5" d="M168.67,203.75l1.11,2.2-1.69,.86,4.46,8.78-2.85,1.45-4.46-8.78-1.69,.86-1.11-2.2,6.24-3.17Z"/>
      <path class="cls-5" d="M179.29,205.95l-3.38,2.1,1.15,1.85c.24,.39,.42,.62,.55,.7,.13,.08,.27,.07,.43-.03,.2-.12,.28-.28,.26-.47-.03-.19-.17-.5-.44-.92l-.7-1.13,2.47-1.54,.39,.63c.33,.53,.55,.96,.66,1.28,.11,.33,.14,.73,.1,1.2-.04,.48-.2,.91-.48,1.31s-.7,.77-1.27,1.12c-.55,.34-1.09,.57-1.61,.67-.52,.1-.98,.09-1.39-.04-.41-.13-.76-.34-1.06-.61-.3-.28-.64-.73-1.04-1.37l-1.55-2.5c-.47-.75-.73-1.4-.8-1.96-.07-.56,.06-1.1,.38-1.61s.78-.96,1.37-1.33c.73-.45,1.42-.69,2.07-.71,.65-.02,1.21,.14,1.69,.48s.97,.92,1.49,1.75l.71,1.14Zm-3.48,.23l-.39-.63c-.28-.44-.48-.71-.6-.81-.13-.1-.26-.1-.41-.01-.18,.11-.26,.24-.23,.37,.03,.14,.19,.45,.49,.93l.39,.63,.76-.47Z"/>
      <path class="cls-5" d="M185.96,199.22l-2.3,1.76-.71-.92c-.25-.32-.44-.52-.58-.6s-.28-.06-.42,.05c-.14,.11-.2,.23-.17,.37,.03,.14,.18,.38,.44,.73l2.89,3.78c.22,.29,.42,.47,.6,.56,.18,.09,.34,.08,.48-.03,.17-.13,.22-.29,.16-.48-.06-.19-.24-.5-.56-.91l-.73-.95,2.17-1.66c.48,.64,.83,1.14,1.03,1.49,.2,.35,.32,.78,.35,1.29,.03,.51-.07,.99-.31,1.44-.24,.45-.62,.88-1.16,1.29-.69,.53-1.32,.83-1.91,.9-.58,.07-1.12-.04-1.61-.34-.49-.3-1.04-.84-1.63-1.62l-1.74-2.28c-.52-.68-.84-1.25-.97-1.7s-.07-.98,.17-1.6,.68-1.16,1.32-1.65c.64-.49,1.28-.77,1.94-.84,.66-.07,1.22,.04,1.68,.33,.46,.3,.98,.82,1.56,1.57Z"/>
      <path class="cls-5" d="M185.92,191.19l1.89,2.03c.03-.36,.11-.69,.25-.98,.14-.3,.34-.57,.6-.8,.39-.37,.82-.58,1.28-.63,.46-.06,.85,.02,1.15,.22,.3,.2,.78,.65,1.43,1.35l4.74,5.09-2.25,2.09-4.84-5.2c-.4-.43-.68-.69-.83-.77s-.31-.06-.46,.08c-.14,.13-.17,.28-.1,.45,.07,.17,.28,.44,.63,.82l4.9,5.27-2.25,2.09-8.38-9.01,2.25-2.09Z"/>
      <path class="cls-5" d="M193.96,186.17l.66,.65c-.13-.41-.16-.8-.09-1.16s.25-.7,.53-1.02c.35-.4,.73-.64,1.13-.72,.41-.09,.78-.04,1.13,.14s.85,.56,1.51,1.14l5.3,4.67-2.03,2.3-5.24-4.62c-.52-.46-.85-.72-1-.79-.14-.07-.29-.02-.42,.13-.14,.16-.17,.32-.07,.48,.09,.16,.43,.49,1,.99l5.12,4.51-2.03,2.3-7.57-6.67,2.07-2.34Z"/>
      <path class="cls-5" d="M204.85,177.93l2,1.44c.74,.53,1.25,.96,1.54,1.28s.5,.71,.62,1.17,.12,.93-.01,1.41c-.13,.48-.38,.97-.73,1.46-.4,.55-.79,.97-1.19,1.27-.4,.3-.79,.46-1.19,.5-.4,.04-.8-.03-1.21-.19-.41-.16-.97-.49-1.66-.99l-2.1-1.51c-.76-.55-1.3-1.06-1.61-1.53-.31-.47-.44-1.02-.39-1.63,.05-.61,.31-1.25,.79-1.92,.4-.56,.83-.98,1.29-1.26s.89-.43,1.32-.46c.42-.03,.81,.02,1.15,.15s.8,.39,1.38,.81Zm-2.41,2.05c-.42-.3-.7-.47-.84-.5-.14-.03-.27,.02-.37,.17s-.12,.29-.05,.41c.07,.13,.32,.34,.74,.64l3.69,2.66c.39,.28,.66,.44,.81,.47,.15,.03,.28-.02,.38-.16,.11-.15,.12-.28,.05-.41s-.29-.31-.64-.57l-3.78-2.72Z"/>
      <path class="cls-5" d="M202.82,170.22l10.51,6.39-1.64,2.7-10.51-6.39,1.64-2.7Z"/>
      <path class="cls-5" d="M212.15,164.88l2.2,1.12c.81,.41,1.38,.75,1.72,1.02,.34,.27,.6,.62,.79,1.06,.19,.43,.26,.9,.21,1.39-.06,.5-.22,1.02-.5,1.56-.31,.61-.63,1.09-.98,1.44-.35,.35-.71,.58-1.1,.67-.39,.1-.8,.1-1.23,0s-1.03-.33-1.79-.72l-2.31-1.17c-.84-.42-1.44-.84-1.82-1.26s-.59-.94-.64-1.55c-.05-.61,.11-1.29,.49-2.02,.31-.61,.67-1.1,1.08-1.44s.82-.57,1.23-.66,.8-.1,1.16-.03c.36,.07,.85,.27,1.49,.59Zm-2.06,2.4c-.46-.23-.76-.36-.91-.37-.15-.01-.26,.07-.34,.23-.08,.16-.08,.3,.01,.42,.09,.12,.37,.29,.83,.52l4.06,2.06c.43,.22,.72,.33,.87,.34,.16,.01,.27-.06,.35-.22,.08-.16,.08-.3-.01-.41-.09-.11-.33-.27-.72-.46l-4.15-2.1Z"/>
      <path class="cls-5" d="M212.36,154.85l7.24,2.81c.98,.38,1.6,.65,1.87,.8s.51,.43,.72,.83c.21,.4,.31,.87,.29,1.43-.02,.55-.18,1.2-.46,1.94-.35,.91-.79,1.58-1.32,2.02-.52,.43-1.24,.48-2.16,.15l1.08-2.78c.42,.16,.68,.09,.8-.21,.08-.22,.08-.39-.02-.51-.1-.12-.35-.26-.76-.42l-.71-.27c.13,.33,.2,.66,.2,.97,0,.32-.04,.62-.16,.92-.2,.51-.47,.9-.8,1.15-.34,.25-.7,.37-1.08,.37-.39,0-.89-.13-1.51-.37l-3.42-1.32c-.89-.35-1.47-.76-1.74-1.23s-.27-1.04-.02-1.7c.14-.36,.34-.66,.6-.9,.26-.24,.58-.42,.97-.53l-.63-.48,1.03-2.66Zm1.38,3.84c-.43-.17-.71-.25-.85-.24-.14,0-.24,.09-.31,.26-.06,.17-.04,.31,.07,.43,.11,.12,.36,.26,.76,.41l3.16,1.23c.42,.16,.7,.24,.85,.24,.15,0,.25-.09,.31-.25,.07-.19,.04-.34-.08-.46s-.46-.28-.99-.48l-2.91-1.13Z"/>
      <path class="cls-5" d="M214.79,146.57l6.78,2.83c1.07,.45,1.8,.77,2.18,.98,.38,.21,.67,.45,.87,.73,.2,.28,.32,.63,.33,1.04,.02,.41-.09,1.02-.32,1.84l-.51,1.79-1.55-.44c.13-.46,.19-.76,.18-.91,0-.14-.09-.24-.26-.29-.08-.02-.43-.06-1.07-.1l-8.58-.68,.76-2.68,6.83,.88-6.42-2.33,.76-2.67Z"/>
      <path class="cls-5" d="M220.18,139.03l-.41,2.85-.67-.1c-.77-.11-1.36-.28-1.75-.52-.39-.24-.71-.65-.96-1.23s-.31-1.3-.18-2.16c.15-1.03,.44-1.78,.88-2.25s.93-.72,1.47-.75,1.64,.07,3.29,.31l5.01,.72-.42,2.96-.89-.13c.33,.24,.56,.51,.7,.83s.18,.68,.12,1.09c-.08,.53-.3,1-.66,1.4s-1.05,.53-2.06,.39l-.82-.12c-.75-.11-1.24-.3-1.48-.57-.24-.27-.47-.9-.7-1.89-.25-1.05-.44-1.63-.56-1.72s-.4-.16-.81-.22c-.52-.07-.87-.08-1.04-.03-.17,.06-.27,.17-.29,.35-.03,.21,.02,.34,.14,.41,.13,.07,.47,.14,1.02,.22l1.05,.15Zm1.51-.77c.29,.54,.54,.86,.77,.97,.23,.11,.57,.2,1.02,.26,.52,.07,.86,.09,1.02,.04,.16-.05,.25-.17,.28-.37,.03-.19-.01-.32-.12-.4-.11-.07-.42-.15-.92-.22l-2.05-.29Z"/>
      <path class="cls-5" d="M217.22,129.22l.93,.09c-.36-.24-.63-.52-.8-.85s-.25-.7-.23-1.12c.02-.53,.17-.95,.43-1.27s.58-.52,.97-.6c.38-.08,1.01-.1,1.89-.06l7.06,.31-.14,3.07-6.98-.31c-.69-.03-1.12-.03-1.27,.01s-.24,.16-.24,.37c0,.22,.07,.36,.24,.42,.17,.06,.64,.11,1.4,.15l6.81,.3-.14,3.07-10.08-.45,.14-3.12Z"/>
      <path class="cls-5" d="M214.8,116.24l12.29-.66,.16,3.07-.73,.04c.32,.28,.56,.57,.73,.89,.17,.32,.26,.65,.28,1.01,.03,.48-.08,.89-.31,1.26-.23,.36-.51,.6-.83,.72-.32,.12-.86,.19-1.6,.23l-4.71,.25c-.77,.04-1.33,.02-1.65-.06-.33-.08-.63-.29-.89-.63s-.41-.76-.44-1.25c-.02-.38,.03-.73,.15-1.05,.12-.32,.31-.62,.57-.89l-2.86,.15-.16-3.07Zm4.92,2.81c-.37,.02-.62,.06-.74,.13-.12,.07-.18,.2-.17,.39,0,.18,.07,.3,.19,.36,.12,.06,.37,.08,.77,.05l4.93-.26c.41-.02,.68-.07,.8-.13,.13-.07,.18-.19,.18-.36-.01-.2-.09-.33-.24-.38-.15-.06-.5-.07-1.06-.04l-4.66,.25Z"/>
      <path class="cls-5" d="M212.09,100.84l12.03-2.57,.58,2.74-8.12,1.74,8.36-.64,.41,1.94-7.69,2.84,7.94-1.69,.58,2.74-12.03,2.57-.86-4.05c.7-.27,1.52-.58,2.48-.92l2.97-1.1-5.77,.48-.87-4.07Z"/>
      <path class="cls-5" d="M216.39,94.32l.92,2.73-.64,.22c-.74,.25-1.34,.36-1.8,.32-.46-.04-.93-.26-1.41-.67-.48-.41-.86-1.03-1.14-1.85-.33-.98-.41-1.78-.23-2.4s.51-1.06,.98-1.33c.47-.27,1.5-.67,3.08-1.21l4.8-1.62,.96,2.83-.85,.29c.4,.06,.73,.21,1,.43,.27,.22,.46,.53,.6,.92,.17,.51,.19,1.02,.04,1.55-.14,.52-.7,.94-1.66,1.27l-.79,.26c-.72,.24-1.24,.29-1.58,.15s-.83-.6-1.47-1.37c-.7-.83-1.12-1.26-1.27-1.28-.15-.02-.43,.03-.83,.17-.5,.17-.81,.32-.94,.44-.13,.13-.16,.27-.1,.45,.07,.2,.17,.3,.31,.3,.14,0,.48-.08,1.01-.26l1-.34Zm1-1.36c.5,.35,.88,.52,1.13,.52,.26,0,.6-.08,1.03-.22,.49-.17,.8-.31,.92-.42,.12-.11,.15-.27,.09-.46-.06-.18-.16-.28-.29-.3-.13-.02-.44,.06-.92,.22l-1.97,.66Z"/>
      <path class="cls-5" d="M209.33,86.89l.87-.33c-.43-.05-.79-.18-1.1-.4s-.54-.52-.71-.9c-.22-.48-.28-.92-.19-1.33,.09-.41,.29-.73,.59-.98,.3-.24,.86-.55,1.66-.91l6.44-2.91,1.26,2.8-6.37,2.88c-.63,.29-1.01,.48-1.13,.58-.12,.1-.14,.25-.05,.44,.09,.2,.23,.29,.41,.27,.18-.02,.62-.19,1.31-.5l6.21-2.81,1.26,2.8-9.19,4.15-1.29-2.85Z"/>
      <path class="cls-5" d="M208.72,77.04l1.44,2.5-.59,.34c-.68,.39-1.24,.61-1.7,.67-.46,.06-.96-.07-1.51-.38s-1.04-.84-1.48-1.59c-.52-.9-.75-1.67-.69-2.31s.29-1.14,.7-1.5,1.34-.95,2.78-1.79l4.39-2.53,1.49,2.59-.78,.45c.41-.02,.76,.06,1.07,.22,.3,.17,.56,.43,.76,.78,.27,.47,.38,.97,.35,1.51-.04,.54-.5,1.06-1.38,1.57l-.72,.41c-.65,.38-1.16,.53-1.52,.46-.36-.07-.93-.42-1.71-1.06-.85-.68-1.35-1.01-1.5-1-.15,0-.41,.12-.78,.33-.46,.26-.73,.47-.83,.62-.1,.15-.1,.3-.01,.46,.1,.18,.23,.26,.37,.24,.14-.02,.46-.18,.94-.46l.92-.53Zm.71-1.53c.56,.25,.96,.34,1.21,.29,.25-.05,.57-.19,.97-.42,.45-.26,.73-.46,.82-.59,.1-.14,.1-.29,0-.47-.1-.17-.21-.25-.34-.24-.13,0-.42,.14-.86,.39l-1.8,1.04Z"/>
      <path class="cls-5" d="M198.1,67.99l6.32-4.51c.85-.61,1.42-.98,1.7-1.12,.28-.14,.64-.19,1.09-.15,.45,.04,.9,.22,1.35,.54,.45,.32,.91,.81,1.37,1.45,.57,.8,.89,1.53,.96,2.21,.07,.68-.28,1.3-1.06,1.89l-1.73-2.42c.36-.26,.45-.52,.26-.78-.14-.19-.28-.28-.44-.26-.16,.02-.41,.15-.77,.41l-.62,.44c.35,.08,.66,.2,.92,.36,.27,.17,.5,.38,.68,.64,.32,.45,.49,.88,.52,1.3,.03,.42-.07,.79-.29,1.11s-.6,.67-1.14,1.06l-2.98,2.13c-.78,.56-1.44,.82-1.98,.78-.54-.04-1.02-.34-1.43-.91-.22-.31-.36-.64-.42-.99-.06-.35-.03-.72,.08-1.1l-.75,.26-1.66-2.33Zm3.97,.95c-.38,.27-.6,.46-.67,.58-.07,.12-.06,.25,.05,.4,.1,.14,.23,.2,.4,.18,.16-.02,.41-.16,.76-.41l2.76-1.97c.37-.26,.59-.45,.67-.58,.08-.12,.06-.26-.04-.4-.12-.16-.26-.23-.43-.18-.17,.04-.48,.23-.95,.57l-2.54,1.82Z"/>
      <path class="cls-5" d="M196.09,57.59l2.62,2.99,1.64-1.44c.34-.3,.54-.52,.6-.65,.06-.14,.02-.27-.1-.42-.15-.18-.32-.24-.5-.18-.18,.06-.46,.25-.84,.58l-1,.88-1.92-2.19,.56-.49c.47-.41,.86-.7,1.16-.86s.69-.26,1.17-.29c.48-.03,.93,.06,1.37,.26,.44,.21,.87,.57,1.31,1.07,.43,.49,.73,.98,.92,1.48,.19,.5,.25,.96,.18,1.38-.06,.42-.21,.8-.44,1.14-.23,.34-.62,.75-1.19,1.25l-2.22,1.94c-.66,.58-1.27,.95-1.81,1.1s-1.09,.12-1.65-.11c-.56-.23-1.07-.61-1.54-1.14-.57-.65-.91-1.29-1.03-1.93-.12-.64-.05-1.22,.2-1.74,.26-.52,.76-1.11,1.49-1.75l1.01-.88Zm.79,3.4l-.56,.49c-.39,.34-.63,.59-.71,.73-.08,.14-.06,.28,.05,.41,.14,.16,.28,.22,.41,.17,.13-.05,.41-.26,.84-.63l.56-.48-.59-.68Z"/>
      <path class="cls-5" d="M188.5,57.41l.68-.68c-.43,.12-.83,.15-1.21,.07-.37-.08-.71-.26-1.03-.54-.61-.55-.83-1.27-.67-2.15-.45,.11-.85,.13-1.22,.05s-.7-.25-.99-.51c-.39-.35-.62-.73-.71-1.15-.08-.42-.04-.79,.13-1.13,.18-.34,.54-.81,1.09-1.43l4.8-5.32,2.21,2-4.4,4.88c-.58,.64-.91,1.06-1.01,1.25s-.06,.36,.1,.5c.16,.15,.33,.16,.52,.06,.18-.11,.56-.48,1.14-1.13l4.4-4.88,2.21,2-4.29,4.76c-.66,.73-1.04,1.19-1.14,1.37-.1,.18-.06,.34,.1,.49,.1,.09,.22,.13,.36,.12,.14-.01,.27-.07,.37-.18,.11-.1,.32-.34,.65-.7l4.68-5.19,2.21,2-6.75,7.49-2.25-2.03Z"/>
      <path class="cls-5" d="M178.19,42.58l3.25,2.29,1.26-1.78c.26-.37,.41-.63,.43-.78,.02-.15-.04-.27-.2-.38-.19-.13-.37-.15-.53-.06-.17,.1-.39,.35-.68,.76l-.77,1.09-2.38-1.68,.43-.61c.36-.51,.67-.88,.92-1.11,.26-.23,.61-.41,1.07-.56,.46-.14,.92-.17,1.39-.07,.47,.1,.98,.34,1.53,.73,.53,.37,.94,.78,1.24,1.22,.3,.44,.46,.87,.5,1.3,.04,.43-.01,.83-.15,1.21s-.43,.88-.86,1.49l-1.7,2.4c-.51,.72-1.01,1.22-1.49,1.5-.49,.28-1.03,.37-1.63,.28s-1.19-.34-1.76-.75c-.7-.5-1.19-1.04-1.46-1.63-.27-.59-.34-1.17-.21-1.74,.13-.57,.47-1.26,1.04-2.05l.77-1.09Zm1.57,3.12l-.43,.6c-.3,.43-.47,.72-.51,.87-.04,.16,0,.28,.15,.38,.17,.12,.32,.15,.43,.07,.12-.08,.34-.35,.66-.81l.43-.6-.73-.52Z"/>
      <path class="cls-5" d="M170.68,44.18l.5-.78c-.38,.21-.75,.32-1.12,.32-.37,0-.74-.1-1.11-.31-.46-.26-.77-.58-.94-.96-.17-.38-.2-.76-.1-1.14,.1-.38,.37-.95,.81-1.71l3.49-6.15,2.67,1.52-3.45,6.07c-.34,.6-.53,.98-.57,1.14-.04,.15,.04,.28,.22,.39,.19,.11,.35,.1,.49-.03,.13-.12,.39-.52,.76-1.18l3.37-5.93,2.67,1.52-4.98,8.77-2.72-1.54Z"/>
      <path class="cls-5" d="M161.79,41.16l.67-1.44-.75-.35,.67-1.45,.75,.35,2.27-4.89c.28-.6,.4-.95,.37-1.05-.03-.1-.27-.25-.73-.46l.68-1.48,1.12,.52c.63,.29,1.07,.53,1.32,.71,.25,.18,.43,.41,.55,.7,.12,.29,.15,.56,.08,.83-.06,.27-.31,.86-.73,1.77l-2.16,4.65,.6,.28-.67,1.45-.6-.28-.67,1.44-2.79-1.3Z"/>
    </g>
    <g>
      <path class="cls-6" d="M117.71,31.16c2.49-.23,4.73-.41,6.96-.65,1.11-.12,1.41,.87,2.06,1.37,1.04,.8,1.69,2.62,2.88,2.51,.97-.09,1.91-1.56,2.69-2.55,.97-1.25,2.16-1.59,3.65-1.42,1.66,.19,3.33,.3,5.41,.49-1.76,1.49-3.28,2.75-4.78,4.04-2.72,2.34-2.7,2.33-.39,5,1.43,1.66,2.93,3.27,4.25,5.45-2.25-.4-4.27-.37-6.27-.53-1.17-.1-1.56-1.31-2.24-2.06-2.48-2.76-2.51-2.82-4.76,.12-1,1.3-1.97,2.13-3.79,2.21-3.29,.15-6.58,.66-9.8,1.42-.96,.23-1.29-.26-1.64-.86-.5-.86-1.07-1.25-2.13-.81-.96,.39-2.01,.55-3.02,.79-1.51,.36-3.04,.66-2.65,2.81,.09,.52-.33,.66-.73,.8-1.25,.45-2.52,.88-3.75,1.39-.79,.33-1.06,.14-1.01-.7,.31-4.87,1.09-9.68,2.1-14.45,.12-.57,.49-.75,.94-.89,.89-.27,1.78-.51,2.68-.75q4.1-1.1,6.9,2.15c2.35,2.73,4.66,5.51,6.71,8.47,.69,.99,1.02,.92,1.7-.02,1.53-2.12,3.14-4.18,4.81-6.19,.6-.73,.52-1.14-.15-1.68-2.15-1.74-4.26-3.52-6.6-5.46Zm-12.9,10.31c.33,.42-.71,1.64,.69,1.38,1.1-.2,2.67-.16,3.15-1.08,.43-.82-.99-1.59-1.52-2.44-.24-.39-.56-.73-.86-1.08-.18-.21-.34-.51-.68-.43-.37,.08-.31,.44-.35,.7-.15,.97-.28,1.94-.42,2.95Z"/>
      <path class="cls-6" d="M84.2,51.96c-.44-2.67-.77-4.85-1.17-7-.3-1.59-.08-2.75,1.68-3.41,1.73-.65,3.37-1.55,5.01-2.42,.82-.43,1.2-.26,1.56,.58,1.59,3.74,3.21,7.46,4.87,11.17,.39,.86,.17,1.17-.63,1.56-3.19,1.57-3.17,1.59-4.79-1.64-.94-1.87-1.9-3.72-2.87-5.57-.04-.08-.17-.11-.45-.28-.02,2.48,.58,4.77,.83,7.09,.04,.34,.15,.68,.19,1.02,.4,2.83-.03,3.49-2.68,4.61-.85,.36-1.18-.25-1.63-.6-2.46-1.94-4.94-3.85-7.86-5.79,.68,1.84,1.84,2.97,2.66,4.3,.49,.79,1.05,1.54,1.57,2.3,1.5,2.18,1.41,2.07-.57,3.78-1.39,1.2-2.05,.89-3.03-.47-2.1-2.93-4.34-5.76-6.63-8.54-.85-1.04-.74-1.52,.35-2.2,1.67-1.05,3.27-2.21,4.84-3.42,.91-.71,1.59-.6,2.45,.09,1.93,1.56,3.93,3.03,6.31,4.84Z"/>
      <path class="cls-6" d="M43.56,100.77c-2.36-.81-4.32-1.52-6.3-2.15-.98-.31-1.31-.72-.84-1.75,.56-1.21,1.02-2.47,1.42-3.73,.3-.93,.74-.96,1.55-.62,3.68,1.57,7.38,3.1,11.08,4.61,.88,.36,1,.74,.72,1.7-.8,2.76-2.16,4.76-5.06,5.78-2.1,.73-3.98,2.07-6.3,3.32,2.26,.95,4.28,1.31,6.26,1.73,1.19,.25,1.52,.75,1.12,1.85-.12,.33-.19,.67-.27,1.01-.69,3.15-.68,3.14-3.74,2.58-3.19-.58-6.38-1.17-9.59-1.69-1.11-.18-1.53-.66-1.27-1.74,.03-.11,.06-.23,.07-.34,.16-3.59,1.91-5.96,5.25-7.36,1.9-.8,3.65-1.96,5.87-3.19Z"/>
      <path class="cls-6" d="M72.77,64.29c.02,.49-.06,1.31-.4,2.05-2.07,4.55-5.1,8.27-10.05,9.68-5.22,1.49-9.77-3.01-8.22-8.19,1.52-5.11,5.03-8.76,10.12-10.49,4.38-1.48,8.6,1.94,8.56,6.94Zm-14.02,2.66c-.05,1.96,2.23,4.26,4.27,4.29,2.06,.03,4.82-2.65,4.87-4.74,.04-1.87-2.38-4.41-4.23-4.43-2.17-.02-4.85,2.64-4.9,4.87Z"/>
      <path class="cls-6" d="M48.82,72.8c.87,.63,1.53,1.01,2.08,1.52,.57,.53-.07,.95-.31,1.35-1.28,2.07-2.58,4.14-3.93,6.17-.61,.92-.36,1.37,.53,1.89,.92,.54,1.38,.4,1.9-.53,.93-1.67,2.03-3.25,2.99-4.91,.55-.97,1.1-.76,1.81-.24,.68,.5,1.33,.83,.57,1.87-1.09,1.5-1.97,3.15-2.99,4.7-.55,.83-.41,1.33,.49,1.75,.89,.42,1.7,1.01,2.6,1.42,1.15,.53,1.57,1.15,.72,2.3-.44,.6-.84,1.29-1.05,1.99-.53,1.77-1.41,1.57-2.79,.86-3.31-1.69-6.69-3.21-10.06-4.77-.74-.34-1.11-.63-.66-1.54,2.26-4.53,4.8-8.88,7.67-13.05,.16-.23,.28-.5,.43-.78Z"/>
      <path class="cls-6" d="M39.18,126.1c-2.37-.14-4.74-.32-7.11-.41-.85-.03-1.3-.22-1.2-1.19,.18-1.73,.3-3.46,.4-5.19,.04-.61,.26-.78,.86-.7,4.25,.53,8.49,1.04,12.74,1.53,.66,.08,.7,.48,.66,.98-.12,1.44-.27,2.88-.34,4.33-.04,.83-.54,.9-1.17,.87-1.62-.08-3.24-.16-4.85-.24,0,0,0,.02,0,.02Z"/>
    </g>
    <circle class="cls-6" cx="131.48" cy="63.94" r="8.23"/>
    <g>
      <path class="cls-1" d="M101.77,198.86l1.44-8.14,1.66,.29-1.19,6.75,4.12,.73-.24,1.38-5.77-1.02Z"/>
      <path class="cls-1" d="M112.83,198.45l1.56,.4c-.25,.56-.62,.98-1.08,1.24-.47,.27-1.03,.37-1.69,.31-1.05-.09-1.79-.5-2.23-1.23-.35-.58-.49-1.29-.41-2.12,.09-1,.42-1.75,.99-2.27,.57-.52,1.25-.74,2.05-.67,.89,.08,1.57,.44,2.04,1.07,.47,.64,.63,1.56,.5,2.78l-3.98-.35c-.03,.47,.07,.85,.29,1.13,.22,.28,.52,.44,.88,.47,.25,.02,.46-.03,.65-.15s.33-.33,.44-.62Zm.23-1.6c.03-.46-.06-.82-.26-1.08-.21-.26-.47-.4-.79-.43-.35-.03-.64,.07-.89,.3-.25,.23-.39,.57-.42,1l2.38,.21Z"/>
      <path class="cls-1" d="M117.25,196.38l-1.44-.28c.17-.58,.46-1.01,.86-1.28,.4-.27,1-.4,1.78-.39,.71,.01,1.24,.1,1.59,.28,.35,.17,.59,.39,.73,.65,.14,.26,.2,.74,.19,1.43l-.05,1.86c0,.53,.01,.92,.06,1.17,.05,.25,.14,.52,.27,.81l-1.58-.03c-.04-.11-.09-.26-.15-.47-.03-.09-.04-.16-.05-.19-.28,.26-.57,.45-.88,.58-.31,.13-.65,.19-1,.18-.62,0-1.11-.19-1.46-.53-.35-.34-.52-.77-.52-1.29,0-.34,.09-.64,.26-.91,.17-.26,.4-.47,.69-.6,.3-.14,.72-.25,1.28-.35,.75-.13,1.27-.25,1.56-.37v-.16c0-.31-.06-.53-.21-.66s-.43-.2-.85-.21c-.28,0-.51,.05-.67,.16-.16,.11-.29,.3-.4,.58Zm2.11,1.33c-.21,.06-.53,.14-.98,.23-.44,.09-.74,.18-.87,.26-.21,.14-.32,.33-.32,.56,0,.22,.08,.42,.24,.58,.16,.17,.37,.25,.63,.25,.29,0,.56-.09,.83-.27,.2-.14,.32-.31,.39-.52,.04-.14,.07-.4,.08-.78v-.32Z"/>
      <path class="cls-1" d="M124.38,200.41l-1.59,.1-.38-6.02,1.48-.09,.05,.86c.23-.42,.44-.7,.63-.84,.19-.14,.42-.22,.68-.24,.36-.02,.72,.05,1.07,.23l-.4,1.42c-.28-.16-.53-.23-.76-.21-.22,.01-.41,.09-.56,.22-.15,.13-.25,.36-.32,.69s-.07,1,0,2.03l.12,1.86Z"/>
      <path class="cls-1" d="M133.2,199.41l-1.58,.22-.42-3.05c-.09-.65-.18-1.06-.28-1.24-.09-.18-.22-.31-.39-.4-.17-.08-.36-.11-.57-.08-.27,.04-.51,.15-.71,.33s-.32,.4-.36,.66c-.05,.26-.02,.72,.07,1.39l.38,2.71-1.58,.22-.83-5.98,1.47-.2,.12,.88c.43-.75,1.04-1.18,1.83-1.29,.35-.05,.68-.03,.98,.06s.55,.22,.72,.39,.31,.38,.4,.62c.09,.24,.17,.59,.24,1.05l.52,3.71Z"/>
      <path class="cls-1" d="M138.48,198.27l-.39-1.55,1.55-.39,.39,1.55-1.55,.39Z"/>
      <path class="cls-1" d="M145.28,196.37l-2.93-7.8,5.78-2.17,.5,1.32-4.21,1.58,.65,1.73,3.91-1.47,.49,1.31-3.91,1.47,.8,2.12,4.36-1.64,.49,1.31-5.93,2.23Z"/>
      <path class="cls-1" d="M152.25,193.69l.6-3.75-3.15-1.72,1.75-.85,1.69,1.03,.29-1.98,1.69-.82-.59,3.46,3.4,1.88-1.76,.86-1.92-1.15-.3,2.22-1.68,.82Z"/>
      <path class="cls-1" d="M155.99,185.11l1.28-.76,.45,.76c.01-.36,.11-.7,.29-1.04,.19-.33,.45-.6,.8-.81,.6-.36,1.25-.43,1.95-.21,.7,.22,1.3,.75,1.81,1.59,.52,.86,.71,1.66,.57,2.4-.14,.73-.5,1.28-1.11,1.64-.29,.17-.58,.27-.88,.29-.3,.03-.66-.02-1.08-.15l1.56,2.61-1.37,.82-4.28-7.15Zm2.85,1.69c.35,.58,.72,.94,1.12,1.08,.4,.14,.76,.11,1.09-.09,.32-.19,.51-.48,.57-.86,.06-.38-.09-.86-.43-1.45-.32-.54-.67-.88-1.05-1.01-.38-.13-.72-.1-1.05,.09-.33,.2-.54,.5-.6,.89-.07,.39,.05,.84,.36,1.35Z"/>
      <path class="cls-1" d="M167.26,182.7l1.45-.72c.18,.59,.17,1.14,0,1.65-.18,.51-.54,.95-1.07,1.34-.85,.62-1.68,.79-2.49,.53-.64-.21-1.21-.66-1.7-1.34-.59-.81-.83-1.6-.74-2.36s.46-1.38,1.11-1.85c.73-.53,1.48-.7,2.24-.52s1.5,.77,2.2,1.77l-3.24,2.34c.29,.38,.61,.6,.96,.67,.35,.07,.68,0,.98-.22,.2-.15,.33-.32,.39-.54,.06-.21,.03-.46-.07-.76Zm-.87-1.36c-.28-.37-.58-.58-.91-.64-.32-.06-.62,0-.88,.19-.28,.2-.44,.48-.48,.81s.08,.68,.33,1.03l1.93-1.4Z"/>
      <path class="cls-1" d="M172.2,181.23l-1.23,1.02-3.87-4.63,1.14-.95,.55,.66c-.07-.47-.06-.83,.01-1.05,.07-.23,.21-.43,.41-.59,.28-.23,.61-.38,1-.44l.51,1.39c-.32,.04-.57,.13-.74,.28-.17,.14-.28,.31-.32,.51-.04,.19,0,.44,.15,.75,.14,.3,.54,.85,1.19,1.64l1.2,1.43Z"/>
      <path class="cls-1" d="M170,174.06l-1-1.08,1.17-1.08,1,1.09-1.17,1.08Zm4.65,5.03l-4.1-4.43,1.17-1.08,4.09,4.43-1.17,1.08Z"/>
      <path class="cls-1" d="M178.28,172.83l1.29-.97c.28,.55,.38,1.09,.29,1.62-.09,.53-.36,1.03-.81,1.51-.73,.76-1.51,1.08-2.35,.97-.67-.09-1.31-.43-1.92-1.01-.72-.69-1.11-1.42-1.16-2.19-.05-.77,.2-1.44,.76-2.02,.62-.65,1.32-.96,2.11-.92,.79,.03,1.62,.48,2.48,1.34l-2.76,2.89c.35,.32,.7,.48,1.07,.48,.36,0,.67-.13,.92-.39,.17-.18,.27-.38,.29-.6,.02-.22-.05-.46-.21-.73Zm-1.1-1.18c-.34-.31-.68-.47-1.01-.47-.33,0-.61,.11-.83,.35-.24,.25-.35,.55-.32,.89,.03,.34,.2,.66,.52,.96l1.65-1.72Z"/>
      <path class="cls-1" d="M185.41,167.34l-1,1.25-2.4-1.93c-.51-.41-.86-.65-1.05-.71-.19-.07-.38-.07-.56-.02-.18,.05-.34,.16-.47,.33-.17,.22-.27,.46-.29,.72-.02,.27,.04,.51,.19,.73,.14,.22,.48,.54,1,.96l2.13,1.71-1,1.25-4.71-3.78,.93-1.16,.69,.55c-.2-.84-.05-1.57,.45-2.19,.22-.27,.47-.49,.75-.63s.55-.22,.79-.21c.25,0,.49,.07,.72,.18s.53,.31,.89,.6l2.92,2.35Z"/>
      <path class="cls-1" d="M186.02,158.93l-.64,1.47c-.29-.13-.55-.16-.79-.09-.24,.07-.44,.23-.6,.47-.22,.33-.28,.67-.19,1.02,.1,.35,.41,.7,.95,1.06,.59,.4,1.08,.58,1.46,.54,.38-.04,.68-.22,.91-.56,.17-.25,.23-.51,.2-.76s-.21-.53-.51-.83l1.09-1.16c.51,.54,.79,1.1,.83,1.69s-.14,1.21-.57,1.85c-.49,.73-1.11,1.16-1.87,1.29s-1.54-.08-2.36-.63c-.83-.55-1.33-1.2-1.49-1.95s0-1.49,.5-2.24c.41-.61,.86-1.01,1.37-1.19,.5-.18,1.08-.18,1.72,.03Z"/>
      <path class="cls-1" d="M190.4,155.9l1.01-1.26c.41,.46,.64,.96,.7,1.49s-.08,1.09-.4,1.67c-.51,.92-1.19,1.43-2.03,1.54-.67,.08-1.38-.08-2.11-.49-.87-.48-1.43-1.09-1.67-1.83-.24-.73-.17-1.45,.22-2.15,.44-.79,1.04-1.26,1.81-1.43,.77-.17,1.68,.06,2.74,.67l-1.94,3.5c.42,.22,.8,.29,1.15,.2,.35-.09,.61-.29,.79-.61,.12-.22,.16-.44,.13-.65-.04-.22-.17-.43-.39-.66Zm-1.37-.86c-.41-.21-.77-.28-1.1-.2-.32,.08-.56,.27-.72,.55-.17,.31-.2,.62-.09,.94,.11,.32,.36,.59,.74,.79l1.16-2.09Z"/>
      <path class="cls-1" d="M195.03,150.76l-1.47-.62,.62-1.47,1.47,.62-.62,1.47Z"/>
      <path class="cls-1" d="M197.51,144.37l-7.91-2.61,.53-1.6,7.91,2.61-.53,1.6Z"/>
      <path class="cls-1" d="M200,135.62l-.4,1.55-2.98-.77c-.63-.16-1.05-.23-1.25-.22-.2,.02-.37,.09-.51,.21s-.24,.29-.29,.5c-.07,.27-.06,.53,.03,.78,.09,.25,.25,.45,.47,.59,.22,.14,.66,.3,1.31,.46l2.65,.68-.4,1.55-5.84-1.5,.37-1.44,.86,.22c-.53-.68-.69-1.41-.5-2.18,.09-.34,.23-.64,.42-.89,.2-.25,.41-.42,.64-.52,.23-.1,.47-.14,.73-.14,.26,0,.61,.07,1.06,.18l3.63,.93Z"/>
      <path class="cls-1" d="M201.3,128.15l-.25,1.58-3.04-.49c-.64-.1-1.06-.14-1.26-.1s-.36,.12-.49,.26c-.13,.13-.21,.31-.25,.52-.04,.27,0,.53,.11,.77s.29,.42,.52,.54,.68,.23,1.35,.34l2.7,.43-.25,1.58-5.96-.96,.24-1.46,.88,.14c-.59-.63-.82-1.34-.69-2.13,.06-.35,.17-.66,.34-.92,.17-.27,.37-.46,.59-.58,.22-.12,.46-.18,.71-.2,.26-.02,.61,0,1.07,.08l3.7,.6Z"/>
      <path class="cls-1" d="M198.41,126.23c-.53-.04-1.03-.2-1.51-.5-.48-.3-.83-.69-1.06-1.19-.23-.5-.32-1.04-.28-1.63,.06-.91,.41-1.64,1.04-2.18s1.4-.78,2.3-.72c.91,.06,1.65,.41,2.2,1.04,.56,.63,.81,1.39,.75,2.28-.04,.55-.2,1.07-.48,1.55s-.68,.84-1.18,1.07c-.5,.23-1.1,.32-1.79,.27Zm.2-1.63c.6,.04,1.06-.07,1.4-.33,.34-.26,.52-.6,.55-1.02,.03-.42-.11-.78-.4-1.08-.3-.3-.75-.48-1.35-.52-.59-.04-1.05,.07-1.39,.33-.34,.26-.52,.6-.55,1.01-.03,.42,.11,.78,.4,1.08,.3,.31,.75,.48,1.34,.52Z"/>
      <path class="cls-1" d="M201.92,116.85l-5.99,2.54-.03-1.68,3.06-1.19,1.02-.35c-.26-.08-.44-.13-.52-.16-.17-.05-.34-.1-.51-.16l-3.1-1.09-.03-1.64,6.08,2.29,.02,1.44Z"/>
      <path class="cls-1" d="M197.45,110.86l-.12,1.47c-.6-.1-1.05-.34-1.37-.71s-.52-.94-.59-1.72c-.07-.71-.04-1.24,.09-1.61s.32-.63,.57-.8c.24-.17,.71-.29,1.4-.35l1.86-.17c.53-.05,.91-.12,1.16-.19,.25-.08,.5-.2,.78-.37l.16,1.57c-.1,.05-.25,.12-.45,.2-.09,.04-.15,.06-.18,.08,.29,.24,.52,.52,.68,.81,.16,.3,.26,.62,.3,.97,.06,.62-.06,1.12-.36,1.51-.3,.39-.71,.61-1.22,.66-.34,.03-.65-.02-.93-.15-.28-.14-.51-.34-.68-.62s-.34-.69-.5-1.23c-.21-.73-.4-1.23-.54-1.5l-.16,.02c-.31,.03-.52,.13-.63,.29s-.15,.45-.11,.87c.03,.28,.11,.5,.23,.64,.13,.15,.34,.26,.62,.33Zm1.08-2.25c.09,.2,.2,.51,.34,.94s.26,.71,.36,.84c.17,.19,.36,.28,.59,.26,.22-.02,.41-.12,.55-.31,.15-.18,.21-.4,.18-.66-.03-.29-.15-.55-.36-.79-.16-.18-.35-.29-.56-.33-.14-.03-.4-.02-.78,.02l-.32,.03Z"/>
      <path class="cls-1" d="M194.55,103.14l1.26-.21,.18,1.08,2.4-.4c.49-.08,.77-.14,.84-.17,.08-.03,.14-.09,.18-.17,.04-.08,.05-.17,.03-.28-.02-.15-.11-.35-.26-.61l1.2-.34c.22,.34,.37,.74,.44,1.2,.05,.28,.04,.55-.01,.79s-.15,.43-.29,.56c-.13,.13-.33,.24-.58,.32-.18,.06-.54,.14-1.1,.24l-2.59,.43,.12,.72-1.26,.21-.12-.72-1.18,.2-1.18-1.43,2.1-.35-.18-1.08Z"/>
      <path class="cls-1" d="M197.56,97.75l-.11-1.61c.61,.06,1.12,.28,1.52,.64,.4,.36,.67,.86,.83,1.51,.24,1.02,.09,1.86-.46,2.5-.44,.51-1.07,.87-1.89,1.06-.97,.23-1.8,.16-2.47-.22-.67-.38-1.1-.96-1.28-1.73-.21-.87-.08-1.63,.37-2.27,.46-.64,1.28-1.09,2.48-1.35l.92,3.89c.46-.12,.79-.33,.99-.63,.2-.3,.26-.63,.17-.99-.06-.24-.17-.43-.34-.57-.17-.13-.42-.21-.73-.22Zm-1.59,.28c-.45,.12-.76,.31-.94,.59-.18,.28-.23,.57-.16,.89,.08,.34,.27,.59,.57,.75,.3,.16,.66,.19,1.08,.09l-.55-2.32Z"/>
    </g>
  </g>
</svg>