<?xml version="1.0" encoding="UTF-8"?>
<svg id="Layer_1" xmlns="http://www.w3.org/2000/svg" version="1.1" viewBox="0 0 841.89 595.28">
  <!-- Generator: Adobe Illustrator 29.6.0, SVG Export Plug-In . SVG Version: 2.1.1 Build 207)  -->
  <defs>
    <style>
      .st0 {
        fill: #fff200;
      }

      .st1 {
        fill: #fff;
      }

      .st2 {
        fill: none;
      }

      .st3 {
        fill: #26427a;
      }

      .st4 {
        fill: #7e191d;
      }

      .st5 {
        fill: #28437d;
      }
    </style>
  </defs>
  <g>
    <circle class="st1" cx="425.69" cy="294.79" r="119.3"/>
    <g>
      <g>
        <path class="st4" d="M465.74,232.17h-.07c.01.17.02.34.03.51.08-.11.12-.26.05-.51h0Z"/>
        <path class="st4" d="M506.92,282.8c-.38-4.34-1.06-8.61-2.08-12.82-1.82-7.47-4.65-14.54-8.47-21.22-3.46-6.06-7.59-11.63-12.43-16.66-5.33-5.54-11.37-10.2-17.99-14.09-6.58-3.87-13.57-6.73-20.97-8.61-.38-.1-.75-.34-1.2.02.96.46,1.89.92,2.83,1.36,3.02,1.44,5.89,3.07,8.63,4.85.94.53,1.83,1.14,2.67,1.8,6.16,4.39,11.6,9.67,16.29,15.84,4.29,5.65,7.69,11.81,10.24,18.47,2.79,7.31,4.37,14.86,4.85,22.63.21,3.39.12,6.81-.19,10.23-.46,5.09-1.34,10.07-2.75,14.98-3.08,10.69-8.34,20.21-15.66,28.54-4.8,5.46-10.28,10.19-16.47,14.04-1.87,1.16-3.82,2.18-5.72,3.28-.61.35-1.04.32-1.42-.33-.33-.54-.75-1.02-1.13-1.54-2.49-3.35-4.74-6.84-6.78-10.48-2.2-3.95-4.17-8.01-5.74-12.25-1.83-4.95-3.23-10.02-4.05-15.23-.46-2.91-.91-5.83-.83-8.8.06-2.14.05-4.29.01-6.43-.07-3.67.58-7.26,1.35-10.82,1.4-6.42,3.65-12.54,6.87-18.29,2.91-5.18,6.4-9.91,10.47-14.21,5.01-5.29,10.72-9.71,16.95-13.46h-42.06c-.11.19-.43.23-1.11.3-2.71.3-5.43.32-8.15.35-.4,0-.81.04-1.21.12-1.24.25-1.24.33-1.05,1.63.42,2.97.96,5.94,1.14,8.93.25,4.16-.01,8.31-.59,12.46-1.04,7.54-3.45,14.63-6.9,21.37-2.96,5.8-6.68,11.12-11.05,15.94-4.84,5.33-10.22,10.08-16.16,14.16-5.36,3.68-10.97,6.89-16.94,9.48-2.07.9-4.17,1.72-6.25,2.6-.82.34-1.46.25-1.88-.61-.05-.1-.13-.19-.19-.29-3.99-6.02-7.14-12.44-9.19-19.39-.1-.35-.09-.81-.73-1.14.84,8.18,3.05,15.84,6.19,23.25-1.21.72-2.45.83-3.59,1.2-.15.05-.28.09-.4.13-.05.1-.1.2-.17.29-.1.13-.22.24-.33.37.13.08.24.18.34.29,1.09-.09,2.19-.19,3.27-.35,1.29-.19,1.99.36,2.52,1.53,1.54,3.38,3.43,6.58,5.52,9.64,4.1,5.99,8.77,11.48,14.28,16.27,4.75,4.12,9.85,7.7,15.36,10.69,6.55,3.55,13.47,6.13,20.73,7.82,4.52,1.05,9.09,1.74,13.7,1.99,3.92.21,7.85.15,11.8-.18,4.51-.38,8.94-1.12,13.32-2.18,2.13-.52,4.22-1.24,6.32-1.88.58-.18,1.1-.31,1.55.29.85,1.13,1.81,2.19,2.49,3.44.62,1.15,1.84,2.23,2.59,3.34,1.06,1.58,2.07,3.18,3.04,4.81,1.89,3.17,3.62,6.44,5.17,9.79.62,1.33,1.18,2.96,2.87,2.84,2.59-.19,5.2-.29,7.79-.43.24-.01.44-.13.5-.45.14-.71-4.4-4.92-4.99-5.61-1.8-2.08-3.56-4.2-5.18-6.44-2.9-4.01-5.47-8.39-7.93-12.66-.78-1.36-.7-1.64.75-2.36,2.91-1.44,5.8-2.89,8.56-4.62,7.16-4.5,13.53-9.89,19.06-16.3,3.87-4.49,7.26-9.31,10.09-14.51,3.8-7.01,6.58-14.41,8.28-22.22.9-4.13,1.54-8.31,1.73-12.52.18-3.98.17-7.97-.18-11.97h-.01ZM355.17,324.51c21.5-1.04,53.39,5.76,79.12,26.36-30.58,8.47-62.26-3.61-79.12-26.36Z"/>
      </g>
      <g>
        <path class="st5" d="M332.38,313.96l-.65-3.12,2.08-.44c.61-.13.98-.24,1.11-.34.14-.1.18-.26.13-.49-.05-.26-.18-.4-.38-.43s-.6.02-1.21.14l-5.57,1.17c-.58.12-.96.24-1.12.34-.16.11-.22.28-.17.52.05.23.17.37.36.4.19.03.62-.02,1.28-.16l1.51-.32.65,3.12-.47.1c-1.24.26-2.14.36-2.7.29-.56-.07-1.09-.36-1.61-.88s-.87-1.22-1.05-2.1c-.19-.91-.18-1.7.02-2.36.21-.66.58-1.15,1.13-1.46.55-.32,1.41-.6,2.58-.84l3.5-.73c.86-.18,1.52-.29,1.96-.32s.9.06,1.36.27.86.55,1.2,1.03c.34.47.58,1.05.72,1.72.19.92.17,1.71-.06,2.39-.23.67-.59,1.16-1.08,1.46s-1.3.57-2.42.8l-1.14.24h.04Z"/>
        <path class="st5" d="M334.74,323.06l-2.34.75c-.86.27-1.51.43-1.94.47s-.86-.03-1.3-.2-.81-.46-1.12-.85-.55-.88-.74-1.45c-.21-.64-.31-1.21-.31-1.71s.1-.91.31-1.25.5-.63.87-.86.97-.48,1.78-.74l2.45-.78c.89-.28,1.62-.41,2.18-.38s1.07.25,1.54.66c.46.4.82,1,1.06,1.77.21.65.29,1.25.24,1.78-.05.53-.18.97-.42,1.33s-.5.63-.8.83c-.3.2-.79.41-1.47.62h0ZM334.53,319.91c.49-.16.79-.28.9-.37s.14-.23.08-.4c-.05-.17-.16-.27-.3-.29-.15-.02-.46.05-.95.21l-4.32,1.38c-.45.14-.74.27-.86.37s-.15.24-.1.4c.06.17.15.27.3.28.14.02.42-.04.83-.17l4.41-1.41h.01Z"/>
        <path class="st5" d="M342.11,326.01l-11.35,4.62-1.19-2.92,11.35-4.62,1.19,2.92Z"/>
        <path class="st5" d="M344.3,330.74l-11.07,5.27-1.35-2.84,11.07-5.27,1.35,2.84Z"/>
        <path class="st5" d="M342.22,342.27l-1.98-3.43-1.88,1.08c-.39.23-.63.4-.71.52s-.07.26.02.43c.12.2.27.29.46.27.19-.02.5-.15.93-.4l1.15-.66,1.45,2.51-.64.37c-.54.31-.97.51-1.3.61s-.73.12-1.2.06-.9-.23-1.28-.52-.74-.72-1.08-1.3c-.32-.56-.53-1.1-.61-1.62-.09-.52-.06-.98.09-1.38s.36-.74.65-1.03.75-.62,1.4-.99l2.54-1.46c.76-.44,1.42-.68,1.98-.73.56-.05,1.09.1,1.59.43s.93.8,1.28,1.41c.43.74.64,1.44.64,2.08s-.18,1.2-.54,1.66c-.35.46-.95.94-1.8,1.42l-1.15.67h-.01ZM342.1,338.8l.64-.37c.45-.26.73-.45.83-.57.1-.12.11-.26.03-.41-.11-.18-.23-.26-.36-.24s-.45.17-.94.45l-.64.37.45.77h-.01Z"/>
        <path class="st5" d="M351.9,347.09l-6.29,4.5c-.85.61-1.41.98-1.69,1.12-.28.14-.64.19-1.09.15s-.9-.22-1.35-.54-.9-.8-1.37-1.45c-.57-.79-.89-1.53-.96-2.2-.07-.67.28-1.3,1.05-1.88l1.73,2.41c-.36.26-.45.52-.26.78.14.19.28.27.44.26.15-.02.41-.15.76-.41l.62-.44c-.35-.08-.65-.2-.92-.36s-.49-.38-.68-.64c-.32-.45-.49-.88-.52-1.3-.03-.42.07-.79.29-1.1s.6-.67,1.14-1.06l2.97-2.12c.78-.55,1.43-.81,1.97-.78.54.04,1.01.34,1.42.91.22.31.36.64.42.99.06.35.03.71-.08,1.1l.74-.26,1.66,2.32h0ZM347.95,346.14c.37-.27.6-.46.67-.58s.05-.25-.05-.4c-.1-.14-.23-.2-.39-.18-.16.02-.41.16-.76.41l-2.75,1.96c-.37.26-.59.45-.66.58-.08.12-.06.26.04.4.12.16.26.22.43.18.17-.04.48-.23.95-.56l2.53-1.81h-.01Z"/>
        <path class="st5" d="M353.9,357.44l-2.61-2.98-1.64,1.43c-.34.3-.54.52-.6.65-.06.14-.02.27.1.41.15.17.32.23.5.18s.46-.25.84-.58l1-.87,1.91,2.18-.56.49c-.47.41-.85.69-1.15.85s-.69.26-1.17.29c-.47.03-.93-.05-1.36-.26-.43-.21-.87-.56-1.31-1.06-.43-.49-.73-.98-.92-1.47-.19-.5-.25-.95-.18-1.38.06-.42.21-.8.43-1.14.22-.34.62-.75,1.18-1.24l2.21-1.93c.66-.58,1.26-.95,1.8-1.1s1.09-.12,1.65.11c.56.23,1.07.61,1.53,1.13.56.65.91,1.29,1.03,1.92s.06,1.21-.2,1.74c-.26.52-.75,1.1-1.48,1.75l-1,.88h0ZM353.12,354.05l.55-.48c.39-.34.63-.58.7-.73.08-.14.06-.28-.05-.41-.14-.16-.27-.22-.4-.17s-.41.26-.83.63l-.55.48.59.67h-.01Z"/>
        <path class="st5" d="M364.92,365.37l-1.61,1.86c-.59.68-1.06,1.15-1.4,1.41s-.75.43-1.21.51c-.46.08-.93.04-1.4-.14-.47-.17-.93-.46-1.39-.86-.51-.44-.9-.87-1.15-1.29s-.39-.83-.39-1.23.1-.79.29-1.19c.2-.39.57-.92,1.13-1.56l1.69-1.95c.61-.71,1.17-1.19,1.66-1.46.5-.26,1.05-.34,1.65-.24s1.22.42,1.83.96c.52.45.9.91,1.13,1.39.24.48.35.93.34,1.35s-.1.8-.25,1.13c-.15.33-.46.76-.93,1.3h0ZM363.11,362.79c.34-.39.53-.65.57-.79.05-.14,0-.27-.14-.38s-.27-.15-.41-.09-.37.29-.71.68l-2.97,3.43c-.31.36-.49.61-.54.76-.05.15,0,.28.13.4.14.12.27.15.4.09s.34-.26.62-.58l3.03-3.5.02-.02Z"/>
        <path class="st5" d="M373.36,364.49l-.92,1.25c-.51-.38-.82-.57-.95-.59s-.27.08-.43.3l-.19.26,1.04.76-.94,1.28-.58-.43-4.87,6.61-2.46-1.82,4.87-6.61-.51-.37.94-1.28.51.37c.39-.53.67-.87.84-1.03.17-.15.38-.24.62-.28.25-.03.53,0,.84.13.31.12.75.38,1.29.79l.9.67h0Z"/>
        <path class="st5" d="M380.59,369.04l-6.24,10.55-2.74-1.62,6.24-10.55,2.74,1.62Z"/>
        <path class="st5" d="M384.22,373.45l-.45.81c.36-.23.73-.36,1.1-.39.37-.03.74.05,1.12.24.47.23.8.53.99.9s.25.74.17,1.12-.31.96-.7,1.75l-3.09,6.33-2.75-1.34,3.05-6.25c.3-.62.47-1.01.49-1.17.03-.16-.05-.28-.24-.37-.2-.09-.36-.08-.48.06-.13.13-.36.54-.69,1.22l-2.98,6.1-2.75-1.34,4.41-9.03,2.8,1.36h0Z"/>
        <path class="st5" d="M394.21,375.35l-.57,1.45c-.59-.23-.94-.34-1.07-.33s-.24.15-.34.4l-.12.3,1.2.47-.58,1.48-.68-.27-3,7.65-2.85-1.12,3-7.65-.59-.23.58-1.48.58.23c.24-.62.42-1.02.55-1.21.12-.19.3-.33.53-.43s.51-.13.85-.1c.33.03.82.17,1.45.42l1.04.41h.02Z"/>
        <path class="st5" d="M400.57,383.38l-.71,2.35c-.26.87-.5,1.49-.71,1.86s-.51.7-.9.96c-.39.26-.84.41-1.33.44s-1.04-.04-1.62-.22c-.65-.2-1.17-.43-1.58-.71-.41-.28-.69-.6-.85-.96s-.23-.76-.22-1.21c.02-.44.15-1.07.4-1.88l.75-2.46c.27-.89.58-1.56.92-2.01.35-.44.81-.74,1.41-.89.59-.15,1.28-.11,2.07.13.66.2,1.19.47,1.6.8.41.34.7.7.86,1.09.16.39.24.77.23,1.13,0,.36-.11.88-.32,1.56v.02ZM397.86,381.77c.15-.49.22-.81.2-.96-.01-.14-.11-.24-.28-.29-.17-.05-.31-.02-.41.09s-.22.41-.37.9l-1.31,4.34c-.14.45-.2.76-.18.91.02.16.11.26.28.31s.31.03.4-.08.2-.37.33-.79l1.34-4.43Z"/>
        <path class="st5" d="M406.62,381.1l-.39,1.27c.63-.83,1.36-1.19,2.2-1.07l-.73,3.46c-.55-.12-.97-.13-1.25-.03s-.49.27-.6.52c-.12.25-.27.85-.48,1.81l-.82,3.88-2.99-.63,2.08-9.83,2.99.63h0Z"/>
        <path class="st5" d="M413.14,382.2l-.15.95c.27-.35.58-.61.93-.76.35-.16.73-.21,1.14-.17.81.08,1.42.53,1.81,1.33.29-.35.61-.6.95-.76.34-.16.71-.21,1.1-.17.52.05.93.22,1.25.51.31.29.5.62.56.99s.05.97-.04,1.79l-.72,7.1-2.95-.3.66-6.51c.09-.85.11-1.38.08-1.59-.04-.21-.16-.32-.37-.35-.22-.02-.37.06-.45.26-.08.19-.17.72-.26,1.58l-.66,6.51-2.95-.3.65-6.35c.1-.98.14-1.57.11-1.77-.03-.2-.15-.31-.37-.33-.14-.01-.26.03-.36.12-.11.09-.17.21-.2.36s-.06.46-.11.94l-.71,6.93-2.95-.3,1.02-9.99,3,.31v-.03Z"/>
        <path class="st5" d="M425.9,386.82l-2.87.05v-.67c-.02-.78.06-1.38.23-1.8.17-.42.53-.8,1.06-1.13.54-.33,1.23-.5,2.1-.52,1.03-.02,1.82.15,2.35.51.53.36.85.8.97,1.33s.19,1.63.21,3.29l.08,5.04-2.97.05v-.9c-.2.36-.43.64-.72.82s-.64.28-1.05.29c-.54,0-1.03-.13-1.48-.43s-.69-.95-.7-1.96v-.83c-.03-.75.08-1.27.32-1.54.23-.28.82-.6,1.75-.98,1-.41,1.53-.68,1.6-.82s.1-.42.09-.83c0-.53-.05-.87-.13-1.02-.08-.16-.21-.23-.39-.23-.21,0-.33.07-.38.21-.05.13-.07.48-.06,1.04l.02,1.05-.03-.02ZM426.89,388.18c-.48.37-.76.67-.84.91s-.11.59-.1,1.05c0,.52.05.85.12,1s.21.22.41.22.32-.06.37-.18c.06-.12.08-.43.07-.94l-.03-2.07h0Z"/>
        <path class="st5" d="M435.09,381.05l.15,1.58.82-.08.15,1.58-.82.08.51,5.35c.06.66.13,1.02.21,1.09s.36.08.86.03l.15,1.61-1.23.12c-.69.07-1.19.08-1.49.05s-.58-.14-.82-.33c-.25-.19-.41-.41-.49-.68s-.17-.89-.26-1.89l-.48-5.08-.66.06-.15-1.58.66-.06-.15-1.58,3.05-.29v.02Z"/>
        <path class="st5" d="M440.57,379.39l.25,1.58-3.11.49-.25-1.58,3.11-.49ZM440.91,381.58l1.55,9.92-3.11.49-1.55-9.93,3.11-.49h0Z"/>
        <path class="st5" d="M450.63,383.06l.57,2.39c.21.88.32,1.53.33,1.96,0,.43-.09.86-.29,1.28s-.51.78-.93,1.05c-.41.28-.92.49-1.5.62-.66.16-1.23.22-1.72.18s-.9-.17-1.22-.4-.59-.54-.79-.93c-.21-.39-.41-1-.61-1.83l-.59-2.5c-.22-.91-.29-1.64-.21-2.2s.33-1.05.77-1.48c.44-.43,1.05-.74,1.85-.93.67-.16,1.26-.2,1.79-.11.53.09.96.26,1.29.51.34.26.59.54.77.86.18.32.35.82.51,1.51l-.02.02ZM447.48,383.03c-.12-.5-.22-.81-.31-.93s-.22-.16-.39-.11-.28.14-.31.28c-.03.14.02.47.14.97l1.05,4.41c.11.46.21.75.3.88s.22.17.4.13.28-.13.3-.27c.03-.14-.01-.42-.11-.85l-1.07-4.51h0Z"/>
        <path class="st5" d="M454.77,378.02l.25.89c.09-.42.25-.77.5-1.05.24-.28.56-.49.96-.62.5-.17.94-.19,1.34-.07.4.13.7.35.91.67s.46.9.75,1.73l2.3,6.66-2.89,1-2.27-6.58c-.23-.65-.38-1.04-.48-1.17-.09-.13-.24-.16-.43-.09-.21.07-.3.2-.3.38s.13.63.38,1.35l2.22,6.42-2.89,1-3.28-9.5,2.94-1.02h0Z"/>
        <path class="st5" d="M468.79,369.46l1.11,2.19-1.69.86,4.43,8.74-2.84,1.44-4.43-8.74-1.68.85-1.11-2.19,6.21-3.15Z"/>
        <path class="st5" d="M479.33,371.68l-3.36,2.09,1.15,1.85c.24.39.42.62.55.69.12.08.27.07.43-.03.2-.12.28-.28.26-.47-.03-.19-.17-.5-.43-.92l-.7-1.13,2.46-1.53.39.63c.33.53.55.95.66,1.28.11.32.14.72.1,1.2-.04.47-.21.91-.48,1.3-.28.39-.7.77-1.26,1.12-.55.34-1.08.56-1.6.66-.52.1-.98.09-1.39-.04s-.76-.33-1.05-.61c-.3-.28-.64-.73-1.04-1.37l-1.54-2.49c-.46-.75-.73-1.4-.79-1.95-.07-.56.06-1.09.38-1.61.32-.51.77-.96,1.37-1.33.73-.45,1.42-.69,2.06-.71.64-.02,1.21.14,1.68.48s.97.92,1.48,1.75l.7,1.13h-.03ZM475.87,371.91l-.39-.62c-.27-.44-.47-.71-.6-.81s-.26-.1-.41-.01c-.18.11-.26.24-.23.37.02.14.19.44.48.92l.39.62.76-.47Z"/>
        <path class="st5" d="M485.98,364.98l-2.29,1.75-.7-.92c-.24-.32-.44-.52-.58-.59-.14-.07-.28-.06-.42.05s-.2.23-.17.37c.03.14.18.38.44.73l2.87,3.77c.22.29.42.47.6.56s.34.08.48-.03c.17-.13.22-.29.16-.48-.05-.19-.24-.5-.55-.91l-.73-.95,2.17-1.65c.48.64.82,1.14,1.03,1.49.2.35.32.78.34,1.29.03.51-.07.99-.31,1.44-.23.45-.62.88-1.16,1.29-.69.52-1.32.82-1.9.89s-1.12-.04-1.6-.34c-.49-.3-1.03-.83-1.62-1.61l-1.73-2.27c-.52-.68-.84-1.24-.97-1.69s-.07-.98.17-1.59c.24-.61.68-1.16,1.32-1.65.63-.48,1.28-.76,1.93-.84.65-.07,1.21.04,1.67.33.46.3.98.82,1.55,1.57h0Z"/>
        <path class="st5" d="M485.97,356.96l1.88,2.02c.03-.36.11-.68.25-.98.14-.3.34-.56.59-.8.39-.36.82-.57,1.28-.63s.84.02,1.15.22c.3.2.78.65,1.42,1.34l4.71,5.08-2.24,2.08-4.81-5.18c-.4-.43-.68-.68-.83-.77-.16-.08-.31-.05-.46.08-.14.13-.17.28-.1.45s.28.44.62.82l4.88,5.25-2.24,2.08-8.34-8.98,2.24-2.08h0Z"/>
        <path class="st5" d="M493.97,351.98l.66.65c-.13-.41-.16-.8-.08-1.16.07-.36.25-.7.53-1.01.35-.39.72-.63,1.13-.72s.78-.04,1.13.14c.35.18.85.56,1.51,1.14l5.28,4.66-2.02,2.29-5.22-4.6c-.52-.46-.85-.72-.99-.79s-.28-.02-.42.13c-.14.16-.17.32-.08.48.09.16.42.49.99.99l5.09,4.49-2.02,2.29-7.53-6.65,2.06-2.33h-.02Z"/>
        <path class="st5" d="M504.82,343.79l2,1.44c.73.53,1.24.95,1.53,1.27.29.32.49.71.62,1.16.12.46.12.92-.01,1.4s-.38.97-.73,1.46c-.4.55-.79.97-1.19,1.26s-.79.46-1.19.49-.8-.03-1.21-.19-.96-.49-1.65-.99l-2.09-1.51c-.76-.55-1.29-1.05-1.6-1.53-.31-.47-.44-1.01-.39-1.62s.31-1.25.79-1.91c.4-.56.83-.98,1.28-1.25.45-.28.89-.43,1.31-.46.42-.03.8.02,1.14.15.34.12.8.39,1.38.81v.02ZM502.42,345.83c-.42-.3-.7-.47-.84-.5s-.26.02-.37.17-.12.29-.05.41c.07.13.32.34.74.64l3.68,2.65c.38.28.65.43.81.47s.28-.02.38-.16c.11-.15.12-.28.05-.41-.07-.12-.28-.31-.64-.57l-3.76-2.71h0Z"/>
        <path class="st5" d="M502.8,336.12l10.46,6.38-1.64,2.69-10.46-6.38,1.64-2.69h0Z"/>
        <path class="st5" d="M512.1,330.81l2.19,1.11c.81.41,1.38.75,1.71,1.02s.6.62.79,1.05.26.89.2,1.39-.22,1.01-.49,1.55c-.31.6-.63,1.08-.98,1.43-.34.35-.71.57-1.1.67-.38.1-.79.1-1.22,0-.43-.09-1.03-.33-1.79-.72l-2.29-1.16c-.83-.42-1.44-.84-1.81-1.26-.38-.42-.59-.93-.63-1.54-.05-.61.12-1.28.49-2.01.31-.61.67-1.09,1.07-1.44s.81-.56,1.23-.65c.41-.09.8-.1,1.15-.03s.85.27,1.48.59h0ZM510.04,333.2c-.46-.23-.76-.36-.91-.37s-.26.06-.34.23-.08.3.01.42c.09.11.37.29.83.52l4.04,2.05c.42.21.71.33.87.34s.27-.06.35-.22c.08-.16.08-.3-.01-.41s-.33-.26-.72-.46l-4.13-2.1h.01Z"/>
        <path class="st5" d="M512.33,320.81l7.21,2.8c.97.38,1.59.65,1.86.8.27.16.51.43.72.83.21.4.31.87.28,1.42s-.18,1.2-.46,1.94c-.35.91-.79,1.58-1.31,2.01-.52.43-1.24.48-2.15.15l1.08-2.77c.41.16.68.09.8-.21.08-.22.08-.38-.02-.5-.1-.12-.35-.26-.76-.42l-.71-.27c.13.33.19.65.2.97s-.05.62-.16.92c-.2.51-.47.9-.8,1.15s-.7.37-1.08.36c-.38,0-.89-.13-1.51-.38l-3.4-1.32c-.89-.35-1.47-.75-1.73-1.23-.27-.47-.27-1.03-.02-1.69.14-.36.34-.66.6-.89.26-.24.58-.41.96-.53l-.63-.48,1.03-2.65h0ZM513.7,324.63c-.43-.17-.71-.25-.85-.24-.14,0-.24.09-.3.26s-.04.31.07.43.36.26.75.41l3.15,1.22c.42.16.7.24.84.24s.25-.09.31-.25c.07-.19.04-.34-.08-.46-.13-.11-.46-.28-.99-.48l-2.9-1.13h0Z"/>
        <path class="st5" d="M514.75,312.59l6.75,2.83c1.07.45,1.79.77,2.17.98.38.21.67.45.87.73s.31.63.33,1.04-.09,1.02-.32,1.83l-.51,1.78-1.54-.44c.13-.46.19-.76.18-.9s-.09-.24-.25-.29c-.08-.02-.43-.06-1.06-.11l-8.54-.69.76-2.67,6.8.89-6.39-2.33.76-2.66h-.01Z"/>
        <path class="st5" d="M520.12,305.11l-.41,2.84-.67-.1c-.77-.11-1.35-.29-1.74-.52-.39-.24-.71-.65-.95-1.23-.24-.58-.3-1.3-.18-2.15.15-1.02.44-1.77.88-2.24s.93-.71,1.47-.74,1.63.08,3.28.31l4.99.72-.42,2.94-.89-.13c.33.24.56.51.7.83.14.32.17.68.12,1.08-.08.53-.29.99-.66,1.39-.36.4-1.04.53-2.05.38l-.82-.12c-.74-.11-1.23-.3-1.47-.57-.24-.27-.47-.9-.69-1.88-.25-1.05-.43-1.62-.56-1.71-.12-.09-.39-.16-.81-.22-.52-.08-.86-.09-1.03-.03-.17.06-.27.17-.29.35-.03.2.02.34.14.41s.46.14,1.02.22l1.04.15v.02ZM521.62,304.34c.29.54.54.86.77.97.23.11.57.2,1.02.27.51.07.85.09,1.01.04.16-.05.25-.17.28-.37.03-.19-.01-.32-.12-.4-.11-.07-.41-.15-.91-.22l-2.05-.29h0Z"/>
        <path class="st5" d="M517.19,295.29l.92.1c-.36-.24-.62-.52-.79-.85s-.25-.7-.23-1.12c.02-.52.17-.95.43-1.27.26-.32.58-.52.96-.6s1.01-.1,1.89-.06l7.03.32-.14,3.06-6.95-.32c-.69-.03-1.11-.03-1.27.01s-.23.16-.24.37c-.01.22.07.36.24.42.17.06.63.11,1.39.15l6.78.31-.14,3.06-10.04-.46.14-3.11h.02Z"/>
        <path class="st5" d="M514.79,282.38l12.24-.64.16,3.05-.73.04c.32.28.56.57.73.89.17.31.26.65.28,1,.02.47-.08.89-.31,1.25s-.51.6-.83.71c-.32.12-.85.19-1.59.23l-4.7.25c-.77.04-1.32.02-1.65-.06s-.62-.29-.89-.63c-.26-.34-.41-.75-.43-1.24-.02-.38.03-.73.15-1.05.12-.32.31-.62.57-.89l-2.84.15-.16-3.05h0ZM519.68,285.19c-.37.02-.61.06-.74.13-.12.07-.18.2-.17.38,0,.18.07.3.19.36s.37.08.76.05l4.91-.26c.41-.02.67-.07.8-.13.12-.07.18-.19.17-.36,0-.2-.09-.32-.24-.38-.15-.06-.5-.07-1.06-.04l-4.64.24h.02Z"/>
        <path class="st5" d="M512.12,267.05l11.99-2.54.58,2.73-8.09,1.72,8.33-.63.41,1.93-7.67,2.82,7.91-1.67.58,2.73-11.99,2.54-.85-4.03c.7-.27,1.52-.58,2.47-.91l2.96-1.09-5.75.47-.86-4.06h-.02Z"/>
        <path class="st5" d="M516.41,260.58l.91,2.72-.64.21c-.74.25-1.33.35-1.79.32-.46-.04-.92-.26-1.4-.67-.48-.41-.85-1.02-1.13-1.84-.33-.98-.4-1.78-.22-2.39.18-.61.5-1.06.98-1.33s1.49-.67,3.07-1.2l4.78-1.6.95,2.82-.85.29c.4.06.73.21,1,.43s.46.53.59.92c.17.51.18,1.02.04,1.54-.14.52-.69.94-1.66,1.26l-.78.26c-.71.24-1.24.29-1.57.15s-.82-.59-1.47-1.37c-.69-.83-1.12-1.25-1.27-1.28-.15-.02-.43.03-.82.16-.5.17-.81.31-.94.44-.13.12-.16.27-.1.45.07.2.17.3.31.3s.48-.08,1.01-.26l1-.33h0ZM517.41,259.23c.5.35.87.52,1.13.52s.6-.08,1.03-.22c.49-.17.8-.3.92-.42s.15-.26.09-.46c-.06-.18-.16-.28-.29-.3s-.44.05-.91.22l-1.96.66h-.01Z"/>
        <path class="st5" d="M509.39,253.17l.87-.33c-.43-.05-.79-.19-1.09-.4-.3-.22-.54-.52-.71-.9-.21-.48-.28-.92-.19-1.33s.29-.73.59-.97.86-.54,1.66-.9l6.42-2.89,1.25,2.79-6.34,2.85c-.63.28-1.01.48-1.12.58s-.14.25-.05.44c.09.2.22.29.41.27.18-.02.62-.19,1.31-.5l6.19-2.79,1.25,2.79-9.16,4.12-1.28-2.84h-.01Z"/>
        <path class="st5" d="M508.8,243.35l1.43,2.49-.58.34c-.67.39-1.24.61-1.69.66-.46.05-.96-.07-1.51-.38s-1.04-.84-1.47-1.58c-.51-.9-.74-1.66-.69-2.3.06-.64.29-1.13.7-1.49s1.33-.95,2.77-1.78l4.37-2.51,1.48,2.58-.78.45c.41-.02.76.06,1.06.22.3.17.56.43.76.78.27.46.38.96.34,1.5s-.5,1.06-1.38,1.56l-.72.41c-.65.37-1.16.53-1.51.46-.35-.07-.92-.42-1.71-1.06-.84-.67-1.34-1.01-1.49-1s-.41.11-.77.32c-.46.26-.73.47-.83.61-.1.15-.1.3-.01.46.1.18.22.26.37.23.14-.02.45-.17.94-.45l.91-.52h0ZM509.51,241.82c.55.25.96.34,1.21.29s.57-.19.96-.42c.45-.26.72-.46.82-.59.1-.13.1-.29,0-.46-.1-.17-.21-.25-.34-.24-.13,0-.42.14-.85.39l-1.79,1.03h0Z"/>
        <path class="st5" d="M498.23,234.32l6.3-4.49c.85-.61,1.42-.98,1.69-1.12.28-.14.64-.19,1.09-.15.45.04.89.22,1.34.54.45.32.9.81,1.36,1.45.56.79.88,1.53.96,2.2s-.28,1.3-1.06,1.88l-1.72-2.42c.36-.26.45-.52.26-.78-.13-.19-.28-.27-.43-.26-.16.02-.41.15-.76.4l-.62.44c.35.08.65.2.92.36.27.17.49.38.68.64.32.45.49.88.52,1.3s-.07.79-.29,1.1-.6.67-1.14,1.05l-2.97,2.12c-.78.55-1.44.81-1.98.77s-1.01-.34-1.42-.91c-.22-.31-.36-.64-.42-.99-.06-.35-.03-.71.08-1.1l-.75.26-1.65-2.32v.03ZM502.18,235.27c-.37.27-.6.46-.67.57-.07.12-.05.25.05.4.1.14.23.2.39.18s.41-.16.76-.4l2.75-1.96c.37-.26.59-.45.66-.58.08-.12.06-.26-.04-.4-.12-.16-.26-.22-.43-.18s-.48.23-.95.56l-2.53,1.8h.01Z"/>
        <path class="st5" d="M496.26,223.98l2.6,2.99,1.64-1.43c.34-.3.54-.52.6-.65s.02-.27-.1-.41c-.15-.18-.32-.23-.5-.18s-.46.25-.84.58l-1,.87-1.9-2.19.56-.49c.47-.41.85-.69,1.16-.85.3-.16.69-.26,1.17-.29.47-.03.93.06,1.36.27s.87.56,1.31,1.07c.42.49.73.98.91,1.47.18.5.24.95.18,1.38s-.21.8-.44,1.14-.62.75-1.18,1.24l-2.21,1.92c-.66.58-1.26.94-1.8,1.1-.54.15-1.09.12-1.64-.11s-1.07-.61-1.53-1.14c-.56-.65-.91-1.29-1.03-1.92s-.05-1.21.21-1.73.75-1.1,1.49-1.74l1-.88-.02-.02ZM497.04,227.37l-.55.48c-.39.34-.63.58-.71.72s-.06.28.05.41c.14.16.27.22.4.17s.41-.26.83-.63l.55-.48-.59-.67h.02Z"/>
        <path class="st5" d="M488.7,223.79l.68-.67c-.43.12-.83.14-1.2.06s-.71-.26-1.02-.54c-.61-.55-.83-1.26-.67-2.14-.45.11-.85.12-1.22.05-.37-.08-.7-.25-.99-.51-.39-.35-.62-.73-.7-1.15-.08-.42-.04-.79.14-1.13.17-.34.54-.81,1.09-1.42l4.79-5.29,2.2,1.99-4.39,4.86c-.58.64-.91,1.05-1,1.24s-.06.36.09.5c.16.15.33.17.51.06.18-.11.56-.48,1.14-1.12l4.39-4.86,2.2,1.99-4.28,4.73c-.66.73-1.04,1.18-1.13,1.36s-.06.34.1.49c.1.09.22.13.36.12s.26-.07.37-.17c.11-.1.32-.33.65-.69l4.67-5.16,2.2,1.99-6.74,7.45-2.24-2.03h0Z"/>
        <path class="st5" d="M478.44,208.99l3.23,2.29,1.26-1.77c.26-.37.41-.63.43-.77s-.04-.27-.2-.38c-.19-.13-.37-.15-.53-.06-.16.1-.39.35-.68.76l-.77,1.08-2.37-1.68.43-.61c.36-.51.67-.87.92-1.1.26-.23.61-.41,1.06-.55s.92-.16,1.39-.06.98.34,1.52.73c.53.37.94.78,1.23,1.22.3.44.46.87.5,1.29s-.02.83-.16,1.21-.42.88-.86,1.49l-1.69,2.39c-.51.72-1,1.21-1.49,1.49s-1.03.37-1.63.28-1.18-.34-1.75-.75c-.7-.5-1.18-1.04-1.45-1.63s-.34-1.17-.21-1.73c.13-.57.47-1.25,1.04-2.04l.77-1.09h0ZM480,212.09l-.42.6c-.3.42-.47.71-.51.87s0,.28.15.38c.17.12.32.15.43.07.12-.08.34-.34.66-.81l.42-.6-.73-.52h0Z"/>
        <path class="st5" d="M470.98,210.57l.5-.78c-.38.21-.75.32-1.12.32s-.74-.1-1.1-.31c-.46-.26-.77-.58-.93-.96s-.2-.76-.1-1.13.37-.94.81-1.71l3.49-6.12,2.66,1.51-3.44,6.04c-.34.6-.53.98-.57,1.13-.04.15.04.28.22.38.19.11.35.1.49-.02.13-.12.39-.51.76-1.17l3.36-5.9,2.66,1.51-4.97,8.73-2.7-1.54-.02.02Z"/>
        <path class="st5" d="M462.14,207.56l.67-1.43-.75-.35.67-1.44.75.35,2.27-4.87c.28-.6.4-.95.37-1.04-.03-.1-.27-.25-.72-.46l.68-1.47,1.12.52c.63.29,1.07.53,1.32.71.25.18.43.41.54.7.12.29.14.56.08.83-.06.27-.31.86-.73,1.76l-2.16,4.62.6.28-.67,1.44-.6-.28-.67,1.43-2.78-1.3h.01Z"/>
      </g>
      <g>
        <path class="st3" d="M418.08,197.54c2.48-.23,4.71-.41,6.93-.65,1.11-.12,1.4.87,2.05,1.37,1.04.8,1.69,2.61,2.87,2.5.97-.09,1.9-1.55,2.68-2.54.97-1.24,2.16-1.58,3.63-1.41,1.65.19,3.32.3,5.39.49-1.75,1.48-3.27,2.74-4.76,4.02-2.71,2.33-2.69,2.32-.39,4.98,1.43,1.65,2.92,3.26,4.23,5.43-2.24-.4-4.25-.37-6.24-.53-1.16-.1-1.56-1.3-2.23-2.05-2.47-2.75-2.5-2.81-4.75.12-.99,1.3-1.96,2.12-3.77,2.2-3.28.15-6.55.65-9.76,1.41-.95.23-1.28-.26-1.63-.85-.5-.85-1.06-1.24-2.12-.81-.95.39-2,.55-3.01.79-1.5.35-3.02.66-2.64,2.8.09.52-.33.65-.72.79-1.25.45-2.51.88-3.73,1.38-.79.33-1.05.13-1-.69.31-4.85,1.09-9.64,2.09-14.39.12-.57.49-.75.93-.88.88-.27,1.77-.51,2.66-.75,2.72-.73,5.01-.02,6.87,2.14,2.34,2.72,4.64,5.48,6.68,8.44.68.99,1.02.92,1.69-.02,1.52-2.11,3.13-4.16,4.79-6.17.6-.73.52-1.13-.15-1.68-2.14-1.74-4.25-3.51-6.58-5.44h0ZM405.23,207.8c.33.42-.71,1.64.68,1.38,1.1-.2,2.66-.16,3.14-1.07.43-.81-.99-1.59-1.52-2.43-.24-.39-.56-.73-.86-1.08-.18-.21-.34-.5-.68-.43-.37.08-.31.43-.35.7-.15.96-.28,1.93-.42,2.93h0Z"/>
        <path class="st3" d="M384.7,218.25c-.44-2.66-.77-4.83-1.17-6.98-.3-1.58-.08-2.74,1.67-3.39,1.72-.65,3.36-1.55,4.99-2.41.82-.43,1.2-.26,1.55.58,1.58,3.72,3.19,7.43,4.85,11.12.39.86.16,1.17-.63,1.56-3.18,1.56-3.15,1.59-4.77-1.63-.93-1.86-1.9-3.7-2.86-5.55-.04-.08-.17-.11-.45-.28-.02,2.47.57,4.75.82,7.06.04.34.14.68.19,1.02.39,2.82-.03,3.47-2.67,4.59-.85.36-1.18-.25-1.63-.6-2.45-1.93-4.92-3.84-7.83-5.77.68,1.83,1.83,2.96,2.65,4.28.49.79,1.04,1.53,1.57,2.29,1.49,2.17,1.4,2.06-.57,3.76-1.39,1.2-2.04.89-3.02-.47-2.09-2.91-4.32-5.73-6.61-8.5-.85-1.03-.73-1.51.35-2.19,1.66-1.04,3.26-2.21,4.82-3.41.91-.7,1.58-.6,2.44.09,1.92,1.55,3.92,3.01,6.28,4.82h.03Z"/>
        <path class="st3" d="M344.23,266.86c-2.35-.81-4.3-1.52-6.27-2.14-.97-.31-1.31-.72-.83-1.74.56-1.2,1.01-2.46,1.41-3.72.29-.93.74-.96,1.54-.62,3.67,1.56,7.35,3.09,11.04,4.59.88.36,1,.74.72,1.69-.79,2.75-2.15,4.75-5.04,5.76-2.09.73-3.97,2.06-6.27,3.31,2.25.95,4.27,1.3,6.24,1.73,1.19.25,1.52.75,1.12,1.84-.12.32-.19.67-.27,1-.68,3.14-.68,3.13-3.73,2.57-3.18-.58-6.36-1.17-9.55-1.68-1.1-.18-1.53-.66-1.26-1.74.03-.11.06-.23.07-.34.16-3.57,1.9-5.94,5.23-7.33,1.89-.79,3.63-1.96,5.85-3.17h0Z"/>
        <path class="st3" d="M373.32,230.53c.02.49-.06,1.3-.4,2.04-2.06,4.53-5.08,8.23-10.01,9.64-5.2,1.48-9.73-3-8.19-8.16,1.52-5.09,5.01-8.73,10.08-10.44,4.36-1.48,8.57,1.93,8.52,6.92h0ZM359.36,233.19c-.05,1.96,2.22,4.24,4.25,4.28,2.06.03,4.8-2.64,4.85-4.72.04-1.87-2.37-4.4-4.21-4.41-2.16-.02-4.83,2.63-4.89,4.86h0Z"/>
        <path class="st3" d="M349.46,239.01c.87.63,1.53,1.01,2.07,1.51.57.53-.07.95-.31,1.34-1.28,2.06-2.57,4.13-3.91,6.15-.61.92-.35,1.37.53,1.88.92.53,1.37.4,1.89-.53.92-1.67,2.03-3.23,2.98-4.89.55-.96,1.1-.76,1.81-.24.67.49,1.32.83.57,1.86-1.08,1.49-1.96,3.14-2.97,4.68-.54.83-.4,1.32.49,1.74.89.42,1.69,1.01,2.59,1.41,1.14.52,1.57,1.14.71,2.29-.44.6-.84,1.28-1.05,1.99-.52,1.76-1.41,1.56-2.77.86-3.29-1.68-6.66-3.2-10.02-4.76-.74-.34-1.11-.63-.66-1.53,2.25-4.51,4.79-8.85,7.64-13,.16-.23.28-.5.43-.78l-.02.02Z"/>
        <path class="st3" d="M339.87,292.09c-2.36-.14-4.72-.31-7.08-.41-.84-.03-1.29-.22-1.19-1.19.18-1.72.3-3.44.4-5.17.04-.61.26-.77.86-.7,4.23.53,8.46,1.04,12.69,1.53.66.08.7.48.66.97-.12,1.44-.27,2.87-.34,4.31-.04.83-.53.9-1.16.87-1.61-.08-3.22-.16-4.84-.24v.02h0Z"/>
      </g>
      <circle class="st3" cx="431.8" cy="230.18" r="8.2"/>
      <g>
        <path class="st1" d="M402.23,364.57l1.43-8.1,1.65.29-1.19,6.73,4.1.72-.24,1.38-5.75-1.01h0Z"/>
        <path class="st1" d="M413.22,364.16l1.56.4c-.25.56-.61.97-1.08,1.24-.46.26-1.03.37-1.68.31-1.04-.09-1.78-.5-2.22-1.22-.35-.58-.48-1.29-.41-2.12.09-.99.41-1.75.98-2.26.57-.52,1.25-.74,2.04-.67.89.08,1.57.43,2.03,1.07.46.63.63,1.56.5,2.77l-3.97-.35c-.03.47.07.85.29,1.13s.51.44.88.47c.25.02.46-.03.64-.15.18-.12.33-.33.44-.62h0ZM413.45,362.56c.03-.46-.06-.82-.26-1.08s-.47-.4-.79-.43c-.35-.03-.64.07-.89.3-.25.23-.39.56-.42,1l2.37.21h0Z"/>
        <path class="st1" d="M417.64,362.09l-1.44-.28c.17-.58.46-1,.86-1.28.4-.27.99-.4,1.77-.39.71.01,1.24.1,1.58.28.34.17.58.39.72.65s.2.74.19,1.43l-.05,1.86c0,.53.01.92.06,1.17s.14.52.27.81l-1.57-.03c-.04-.11-.09-.26-.15-.47-.02-.09-.04-.16-.05-.19-.28.26-.57.45-.88.58s-.64.19-.99.18c-.62,0-1.1-.19-1.45-.53s-.52-.77-.51-1.28c0-.34.09-.64.26-.9.17-.26.4-.46.69-.6s.72-.25,1.27-.35c.75-.13,1.26-.25,1.55-.37v-.16c0-.31-.06-.52-.21-.66-.15-.13-.43-.2-.85-.21-.28,0-.5.05-.67.16-.16.11-.29.3-.39.58h0ZM419.75,363.41c-.21.06-.53.14-.97.23s-.73.17-.87.26c-.21.14-.32.33-.32.56s.08.42.24.58c.16.17.37.25.63.25.29,0,.56-.09.83-.27.19-.14.32-.31.39-.52.04-.13.07-.39.07-.77v-.32h0Z"/>
        <path class="st1" d="M424.72,366.11l-1.59.1-.38-6,1.47-.09.05.85c.23-.42.44-.7.63-.84s.42-.22.67-.24c.36-.02.72.05,1.06.23l-.4,1.42c-.28-.16-.53-.23-.76-.21-.22.01-.41.09-.55.22-.15.13-.25.36-.32.69-.07.33-.07,1,0,2.02l.12,1.85h0Z"/>
        <path class="st1" d="M433.48,365.12l-1.58.22-.42-3.04c-.09-.64-.18-1.05-.27-1.23-.09-.18-.22-.31-.39-.39-.17-.08-.35-.11-.57-.08-.27.04-.51.15-.7.33-.2.18-.32.4-.36.66-.05.26-.02.72.07,1.38l.37,2.7-1.58.22-.83-5.95,1.46-.2.12.88c.43-.75,1.03-1.17,1.82-1.28.35-.05.67-.03.98.06.31.08.54.21.72.39s.31.38.4.62.17.59.23,1.05l.51,3.7.02-.04Z"/>
        <path class="st1" d="M438.75,363.98l-.39-1.54,1.54-.39.39,1.54-1.54.39Z"/>
        <path class="st1" d="M445.53,362.09l-2.92-7.77,5.76-2.16.49,1.31-4.19,1.57.65,1.72,3.9-1.46.49,1.31-3.9,1.46.79,2.11,4.34-1.63.49,1.31-5.91,2.22h.01Z"/>
        <path class="st1" d="M452.45,359.43l.6-3.73-3.14-1.72,1.75-.85,1.68,1.02.29-1.98,1.68-.81-.59,3.45,3.38,1.88-1.76.85-1.91-1.14-.3,2.21-1.67.81h0Z"/>
        <path class="st1" d="M456.19,350.88l1.27-.76.45.76c.01-.36.11-.7.29-1.03.19-.33.45-.6.79-.8.6-.36,1.25-.43,1.95-.21s1.3.75,1.8,1.59c.51.86.7,1.66.57,2.39-.14.73-.5,1.27-1.1,1.63-.28.17-.58.27-.88.29-.3.02-.66-.02-1.08-.15l1.55,2.6-1.37.82-4.26-7.12h.02ZM459.03,352.56c.35.58.72.94,1.11,1.08.4.14.76.11,1.09-.09.32-.19.5-.47.56-.85s-.08-.86-.43-1.44c-.32-.54-.67-.88-1.05-1.01s-.72-.1-1.04.09c-.33.2-.53.49-.6.88s.05.84.35,1.34h.01Z"/>
        <path class="st1" d="M467.4,348.48l1.44-.71c.18.59.17,1.14,0,1.64s-.54.95-1.07,1.33c-.85.61-1.67.79-2.48.53-.64-.21-1.21-.66-1.7-1.33-.58-.81-.83-1.59-.74-2.35s.46-1.38,1.11-1.84c.72-.52,1.47-.7,2.23-.52s1.5.76,2.19,1.77l-3.23,2.33c.29.38.6.6.96.67.35.07.68,0,.97-.22.2-.15.33-.32.39-.53.06-.21.03-.46-.07-.76h0ZM466.54,347.13c-.28-.37-.58-.58-.9-.64-.32-.06-.62,0-.88.19-.28.2-.44.47-.48.81s.08.68.33,1.03l1.93-1.39h0Z"/>
        <path class="st1" d="M472.32,347.03l-1.22,1.02-3.85-4.61,1.13-.95.55.66c-.06-.47-.06-.82.01-1.05.07-.23.21-.42.4-.59.28-.23.61-.38,1-.44l.51,1.38c-.32.04-.56.13-.74.28-.17.14-.28.31-.32.5s0,.44.15.74.53.85,1.19,1.63l1.19,1.42h0Z"/>
        <path class="st1" d="M470.14,339.88l-1-1.08,1.17-1.08,1,1.08-1.17,1.08ZM474.77,344.9l-4.08-4.42,1.17-1.08,4.08,4.42-1.17,1.08Z"/>
        <path class="st1" d="M478.38,338.65l1.29-.96c.28.55.38,1.09.29,1.62-.08.53-.35,1.03-.81,1.51-.72.75-1.5,1.08-2.34.97-.67-.09-1.3-.43-1.91-1-.72-.69-1.1-1.42-1.15-2.18-.05-.77.2-1.44.75-2.01.62-.65,1.32-.95,2.1-.92.78.04,1.61.48,2.47,1.34l-2.75,2.88c.35.32.7.48,1.06.48s.67-.13.92-.39c.17-.18.27-.38.29-.59.02-.22-.05-.46-.21-.73v-.02ZM477.29,337.48c-.34-.31-.68-.47-1-.47s-.61.11-.83.35c-.24.25-.35.54-.32.88s.2.66.51.95l1.64-1.72h0Z"/>
        <path class="st1" d="M485.48,333.21l-1,1.24-2.39-1.92c-.51-.41-.85-.64-1.05-.71s-.38-.07-.55-.02-.33.16-.47.33c-.17.21-.27.45-.29.72-.02.26.04.51.19.73.14.22.48.54,1,.96l2.12,1.71-1,1.24-4.68-3.76.92-1.15.69.55c-.2-.83-.05-1.56.45-2.18.22-.27.47-.48.75-.63s.54-.22.79-.21.48.07.71.18c.23.11.53.31.89.6l2.91,2.34v-.02Z"/>
        <path class="st1" d="M486.09,324.83l-.64,1.46c-.29-.13-.55-.16-.79-.09-.24.07-.44.22-.6.47-.22.33-.28.67-.19,1.02.1.35.41.7.94,1.06.59.4,1.08.58,1.46.54s.68-.22.9-.56c.17-.25.23-.5.2-.76-.04-.26-.21-.53-.51-.83l1.09-1.15c.51.53.78,1.09.83,1.68s-.14,1.2-.57,1.84c-.49.73-1.11,1.16-1.86,1.28-.75.13-1.53-.08-2.35-.63-.83-.55-1.32-1.2-1.49-1.94s0-1.49.5-2.23c.41-.61.86-1,1.36-1.19.5-.18,1.07-.17,1.71.03h.01Z"/>
        <path class="st1" d="M490.47,321.79l1-1.26c.41.46.64.96.69,1.49s-.08,1.09-.4,1.66c-.51.91-1.18,1.42-2.02,1.53-.67.08-1.37-.08-2.1-.49-.87-.48-1.43-1.09-1.67-1.82-.24-.73-.17-1.44.22-2.14.43-.78,1.03-1.26,1.8-1.42.77-.17,1.68.06,2.73.67l-1.93,3.48c.42.22.8.28,1.15.2.35-.09.61-.29.79-.61.12-.22.16-.43.13-.65-.04-.21-.17-.43-.39-.66v.02ZM489.1,320.94c-.41-.21-.77-.28-1.09-.2s-.56.26-.71.55c-.17.3-.2.62-.09.94.11.32.36.58.74.79l1.15-2.08Z"/>
        <path class="st1" d="M495.06,316.71l-1.46-.62.62-1.46,1.46.62-.62,1.46Z"/>
        <path class="st1" d="M497.54,310.33l-7.88-2.6.53-1.59,7.88,2.6-.53,1.59Z"/>
        <path class="st1" d="M500.03,301.63l-.4,1.54-2.97-.77c-.63-.16-1.04-.23-1.25-.22-.2.02-.37.09-.51.21s-.24.29-.29.5c-.07.27-.06.52.03.77s.25.44.47.58c.22.14.66.29,1.31.46l2.64.68-.4,1.54-5.82-1.5.37-1.43.86.22c-.53-.68-.69-1.4-.49-2.17.09-.34.23-.63.42-.88s.41-.42.63-.52.47-.14.72-.13c.25,0,.61.07,1.06.18l3.62.93h0Z"/>
        <path class="st1" d="M501.32,294.19l-.25,1.57-3.03-.49c-.64-.1-1.06-.14-1.26-.1s-.36.12-.49.26-.21.31-.24.52c-.04.27,0,.53.1.77.11.24.29.42.52.54.23.12.68.23,1.34.34l2.69.43-.25,1.57-5.93-.96.24-1.46.87.14c-.59-.63-.82-1.33-.69-2.12.06-.35.17-.65.34-.92s.37-.46.58-.57.45-.18.71-.2.61,0,1.07.08l3.69.6h0Z"/>
        <path class="st1" d="M498.45,292.27c-.53-.04-1.03-.2-1.5-.5-.47-.29-.83-.69-1.05-1.18s-.32-1.03-.28-1.62c.06-.91.41-1.63,1.04-2.17s1.39-.78,2.29-.71c.91.06,1.64.41,2.19,1.03.56.63.8,1.38.74,2.27-.04.55-.2,1.06-.48,1.55-.28.48-.67.84-1.17,1.06s-1.09.32-1.78.27h0ZM498.65,290.65c.59.04,1.06-.07,1.4-.33.33-.26.52-.6.55-1.01s-.11-.77-.4-1.07c-.3-.3-.75-.47-1.35-.52-.59-.04-1.05.07-1.38.33-.33.26-.52.6-.55,1.01s.11.77.4,1.08c.3.3.74.48,1.34.52h0Z"/>
        <path class="st1" d="M501.95,282.95l-5.97,2.52-.03-1.67,3.05-1.18,1.02-.35c-.26-.08-.43-.13-.52-.16-.17-.05-.34-.1-.51-.16l-3.09-1.09-.03-1.64,6.05,2.29.02,1.43h.01Z"/>
        <path class="st1" d="M497.51,277l-.12,1.46c-.59-.1-1.05-.34-1.37-.71s-.51-.94-.59-1.72c-.07-.71-.04-1.24.09-1.6.13-.36.32-.63.56-.79s.71-.28,1.4-.35l1.85-.17c.53-.05.91-.12,1.16-.19.25-.08.5-.2.77-.36l.16,1.57c-.1.05-.25.12-.45.2-.09.04-.15.06-.18.07.29.24.52.51.68.81.16.29.26.62.29.97.06.62-.06,1.12-.36,1.51s-.7.61-1.21.66c-.34.03-.65-.02-.93-.15-.28-.14-.51-.34-.68-.62-.17-.28-.33-.68-.49-1.22-.21-.73-.39-1.23-.54-1.5l-.16.02c-.3.03-.51.13-.63.29s-.15.45-.11.87c.03.28.1.5.23.64.13.15.33.25.62.33v-.02ZM498.58,274.75c.09.2.2.51.34.94.14.43.26.71.36.83.17.19.36.28.59.25.22-.02.4-.12.55-.3.14-.18.21-.4.18-.65-.03-.29-.15-.55-.36-.79-.16-.18-.35-.29-.56-.33-.14-.03-.4-.02-.78.01l-.32.03h0Z"/>
        <path class="st1" d="M494.62,269.29l1.25-.21.18,1.07,2.39-.4c.48-.08.76-.14.84-.17s.14-.09.17-.17c.04-.08.05-.17.03-.28-.02-.15-.11-.35-.26-.61l1.2-.34c.22.34.36.74.44,1.2.05.28.04.55-.01.79-.06.24-.15.43-.29.56-.13.13-.33.24-.58.32-.18.06-.54.14-1.1.23l-2.58.43.12.72-1.25.21-.12-.72-1.18.2-1.18-1.42,2.09-.35-.18-1.07h.02Z"/>
        <path class="st1" d="M497.63,263.95l-.1-1.6c.61.06,1.12.28,1.51.63.4.36.67.86.82,1.5.24,1.02.08,1.85-.46,2.49-.44.51-1.07.86-1.88,1.05-.97.23-1.79.15-2.46-.22-.67-.38-1.09-.95-1.28-1.73-.21-.87-.08-1.62.38-2.26s1.28-1.09,2.47-1.34l.91,3.88c.46-.12.78-.33.98-.63s.26-.63.17-.98c-.06-.24-.17-.43-.34-.56-.17-.13-.41-.21-.73-.22h0ZM496.05,264.23c-.45.12-.76.31-.94.59s-.23.57-.16.89c.08.34.27.59.57.75.3.16.66.19,1.08.09l-.54-2.31h0Z"/>
      </g>
    </g>
  </g>
  <path class="st4" d="M292.78,401.46h-131.63c6.16-4.67,12.55-9.74,19.14-15.19,6.61-5.42,13.07-10.71,19.39-15.83,6.29-5.14,12.15-10.07,17.6-14.76,5.42-4.67,10.19-8.65,14.32-11.88,8.67-6.98,16.6-13.97,23.79-20.95-1.59-9.12-2.41-18.49-2.41-28.06,0-40.21,14.59-77.02,38.77-105.43-4.37-10.41-10.71-19.91-18.99-28.46-9.25-9.52-20.93-17.3-34.99-23.34-14.09-5.99-30.67-9.02-49.76-9.02-17.6,0-33.01,3.21-46.2,9.62-13.22,6.41-24.38,14.27-33.45,23.59-9.12,9.32-16.38,19.16-21.8,29.58-5.44,10.39-9.17,19.54-11.23,27.46l59.43,15.41v.45c.3-1.17,1.39-4.55,3.31-10.14,1.91-5.57,4.92-11.43,9.02-17.6,4.1-6.16,9.47-11.66,16.08-16.5,6.59-4.85,14.89-7.26,24.85-7.26,5.87,0,11.81.72,17.85,2.19,5.99,1.49,11.43,3.98,16.28,7.51s8.72,8.15,11.66,13.89,4.4,13,4.4,21.82c0,5-.37,9.99-1.09,14.99-.75,5-2.56,10.29-5.49,15.88-2.93,5.57-7.28,11.53-13,17.85s-13.42,13.45-23.11,21.37c-8.2,6.76-17.75,14.71-28.61,23.81-10.86,9.12-21.72,18.24-32.58,27.34-10.84,9.12-21.05,17.72-30.57,25.8-9.54,8.08-17.1,14.47-22.69,19.19v61.29h287.36v-5.49c-29.68-9.02-55.77-26.27-75.61-49.11l-.04-.02Z"/>
  <g>
    <path class="st1" d="M350.03,182.6l1.52,2.06-8.4,6.22-1.71-2.31c.08-.33.19-.78.32-1.36.13-.57.28-1.18.43-1.83s.31-1.29.46-1.94c.15-.65.29-1.21.41-1.7.14-.57.23-1.05.27-1.45.04-.4.04-.74,0-1.04s-.12-.54-.24-.75c-.11-.21-.24-.41-.38-.6-.25-.33-.5-.56-.78-.7-.27-.13-.55-.2-.83-.2s-.56.06-.82.17c-.27.11-.51.25-.73.42-.38.28-.62.6-.73.97-.11.37-.16.72-.14,1.07s.07.65.15.92c.08.26.14.42.16.47v-.02l-2.68,1.08c-.14-.36-.26-.81-.34-1.35-.09-.54-.09-1.12,0-1.72.08-.6.28-1.21.6-1.82s.81-1.16,1.47-1.65c.72-.53,1.43-.88,2.13-1.05s1.36-.2,1.97-.1c.61.1,1.17.31,1.67.64.5.32.92.71,1.25,1.17.34.46.6.93.77,1.41s.27.97.3,1.48,0,1.04-.08,1.6-.2,1.14-.36,1.76c-.06.24-.13.52-.21.85-.07.33-.16.68-.25,1.05-.09.37-.19.75-.29,1.14s-.2.76-.3,1.11l5.38-3.98v-.02Z"/>
    <path class="st1" d="M365.37,176.96c-.9.46-1.82.7-2.76.72-.95.02-1.87-.17-2.78-.58-.84-.37-1.6-.91-2.29-1.6s-1.27-1.51-1.75-2.45c-.53-1.03-.86-2.05-1-3.05s-.11-1.94.11-2.83c.21-.88.6-1.68,1.17-2.41.57-.72,1.29-1.31,2.17-1.76.87-.45,1.76-.68,2.68-.71.91-.03,1.8.13,2.65.48.85.35,1.64.87,2.38,1.57.74.7,1.36,1.55,1.88,2.56.48.93.79,1.88.94,2.86s.13,1.91-.06,2.81c-.19.98-.58,1.85-1.15,2.6-.58.75-1.3,1.35-2.17,1.79h-.02ZM359.47,165.41c-.39.2-.75.49-1.06.88-.31.38-.54.84-.68,1.38s-.16,1.14-.08,1.82c.09.68.33,1.42.74,2.22.28.54.62,1.05,1.03,1.52.41.48.87.86,1.37,1.16.5.29,1.03.47,1.6.53s1.15-.07,1.74-.37c.4-.21.76-.51,1.06-.91s.52-.88.65-1.43c.13-.55.14-1.16.05-1.83-.1-.67-.33-1.38-.72-2.13-.31-.61-.71-1.19-1.2-1.73-.48-.54-.98-.93-1.49-1.16-1.01-.47-2.02-.45-3.03.06h.02Z"/>
    <path class="st1" d="M385.91,168.62c-.96.3-1.91.37-2.85.23s-1.82-.49-2.63-1.05c-.76-.51-1.42-1.17-1.98-1.97s-.99-1.71-1.3-2.72c-.34-1.11-.49-2.16-.46-3.18.04-1.01.23-1.93.6-2.77s.89-1.55,1.57-2.17c.68-.61,1.5-1.07,2.45-1.36.93-.29,1.85-.36,2.76-.23.9.13,1.75.44,2.52.93.78.49,1.47,1.14,2.07,1.96s1.07,1.76,1.4,2.84c.31,1,.45,1.99.43,2.98-.02.99-.2,1.91-.54,2.76-.36.93-.89,1.72-1.59,2.36-.7.64-1.51,1.1-2.45,1.39h0ZM382.1,156.22c-.42.13-.82.36-1.2.68s-.68.74-.9,1.24c-.23.5-.36,1.1-.39,1.78-.03.69.08,1.46.34,2.31.18.58.43,1.14.75,1.68s.71,1,1.15,1.38.94.64,1.49.8c.55.15,1.14.13,1.77-.06.43-.13.84-.37,1.21-.72.37-.34.67-.78.89-1.3s.34-1.12.37-1.8c.02-.68-.09-1.42-.34-2.22-.2-.66-.5-1.3-.88-1.91-.38-.62-.81-1.08-1.26-1.4-.92-.64-1.92-.79-2.99-.46h0Z"/>
    <path class="st1" d="M405.02,153.81c1.62-.22,2.96.07,3.99.87,1.04.8,1.67,2.02,1.89,3.67.1.74.05,1.44-.15,2.11-.2.67-.54,1.28-1.02,1.84-.44.5-.96.91-1.58,1.22s-1.29.52-2.01.62-1.36.11-1.92.04c-.56-.07-1.07-.2-1.52-.38-.46-.18-.87-.4-1.23-.65-.37-.25-.71-.5-1.04-.77l1.2-2.25c.41.36.8.64,1.17.83.37.19.81.36,1.32.49.5.13,1.06.17,1.68.1.31-.04.62-.14.91-.3s.55-.36.76-.6c.22-.24.38-.53.49-.86s.14-.68.09-1.06c-.12-.86-.42-1.53-.92-2.01s-1.1-.69-1.81-.62c-.43.04-.8.12-1.11.23-.32.11-.59.25-.83.41s-.43.34-.59.52c-.16.18-.29.35-.41.5l-2.33-.87.38-7.55,8.16-1.1.34,2.54-5.85.79-.08,3.24c.28-.29.6-.52.96-.68.36-.17.72-.27,1.07-.32h-.01Z"/>
    <path class="st1" d="M427.11,156.22l-6.75-.11.04-2.56,6.75.11-.04,2.56Z"/>
    <path class="st1" d="M461.06,165.44l-.63,2.48-10.13-2.57.71-2.79c.31-.15.72-.35,1.25-.61s1.09-.53,1.69-.82c.6-.29,1.2-.58,1.8-.87.6-.29,1.12-.54,1.58-.75.53-.25.96-.48,1.3-.71.33-.22.6-.44.8-.66s.34-.44.43-.66.17-.44.22-.67c.1-.4.12-.75.05-1.04s-.19-.55-.37-.77-.4-.39-.65-.53c-.26-.14-.52-.24-.79-.31-.45-.12-.86-.1-1.21.04s-.66.33-.92.56-.46.47-.61.7-.24.37-.27.42v-.02l-2.52-1.39c.19-.34.46-.71.83-1.12s.81-.77,1.33-1.09,1.12-.55,1.79-.69,1.41-.11,2.21.1c.87.22,1.59.55,2.16.98.57.44,1.01.92,1.32,1.46.31.54.5,1.11.56,1.7s.03,1.16-.11,1.71c-.14.56-.34,1.06-.6,1.49-.26.43-.58.82-.96,1.16s-.81.66-1.29.95-1.01.57-1.59.83c-.22.1-.49.22-.79.38-.3.15-.62.31-.97.47s-.7.33-1.06.5-.71.33-1.05.47l6.48,1.65v.02Z"/>
    <path class="st1" d="M475.15,173.79c-.92-.41-1.69-.97-2.3-1.69s-1.05-1.56-1.31-2.52c-.24-.89-.31-1.82-.21-2.79.1-.97.37-1.94.8-2.91.47-1.06,1.04-1.96,1.73-2.7.69-.74,1.44-1.31,2.26-1.7s1.69-.6,2.61-.61c.92-.02,1.83.17,2.74.57.89.39,1.64.94,2.24,1.63.6.69,1.03,1.48,1.3,2.35.27.88.36,1.82.29,2.83s-.34,2.03-.8,3.07c-.42.96-.96,1.8-1.62,2.53s-1.4,1.31-2.22,1.73c-.88.47-1.8.72-2.74.74-.95.03-1.87-.16-2.76-.55v.02ZM480.38,161.92c-.4-.18-.85-.27-1.35-.27s-1,.11-1.5.35c-.5.23-.99.59-1.46,1.09-.48.5-.89,1.16-1.25,1.97-.24.55-.42,1.14-.53,1.76s-.12,1.22-.03,1.79c.09.57.29,1.1.6,1.57.32.48.78.85,1.38,1.12.42.18.88.27,1.38.25s1.01-.15,1.52-.4c.51-.25.99-.62,1.45-1.12.46-.5.86-1.13,1.2-1.9.28-.63.47-1.3.59-2.02s.1-1.35-.04-1.89c-.28-1.08-.93-1.85-1.96-2.31h0Z"/>
    <path class="st1" d="M499.72,184.38l-1.4,2.14-8.74-5.73,1.58-2.4c.34-.04.8-.1,1.38-.17.58-.07,1.2-.15,1.86-.23s1.32-.16,1.98-.23c.66-.08,1.24-.14,1.73-.2.58-.06,1.07-.14,1.46-.24s.71-.22.97-.37.47-.3.62-.48.3-.36.43-.56c.23-.35.36-.67.39-.97s0-.58-.1-.85c-.1-.26-.25-.5-.45-.71s-.41-.39-.64-.54c-.39-.26-.78-.38-1.16-.35-.38.02-.74.1-1.06.23-.32.14-.59.29-.81.46-.22.17-.35.27-.39.31v-.02l-1.92-2.13c.28-.26.67-.52,1.15-.79.48-.27,1.02-.47,1.62-.6s1.24-.15,1.92-.06,1.37.36,2.06.81c.75.49,1.32,1.04,1.72,1.63.4.6.66,1.2.77,1.82.12.61.11,1.21-.02,1.79s-.35,1.11-.66,1.58c-.32.48-.67.89-1.05,1.21s-.81.59-1.28.79-.98.36-1.53.48-1.14.21-1.77.27c-.24.02-.53.05-.87.1s-.69.09-1.07.13c-.38.04-.77.08-1.17.12-.4.04-.78.08-1.14.1l5.6,3.67h0Z"/>
    <path class="st1" d="M516.45,188.33c1.22,1.1,1.86,2.3,1.92,3.61s-.47,2.58-1.58,3.82c-.5.55-1.07.97-1.71,1.25s-1.33.42-2.06.41c-.67,0-1.32-.15-1.96-.42s-1.23-.65-1.77-1.14c-.54-.49-.97-.97-1.27-1.44-.31-.47-.54-.94-.69-1.4-.16-.46-.26-.92-.3-1.36-.05-.44-.08-.87-.09-1.29l2.49-.54c-.01.55.03,1.02.12,1.43.09.41.25.85.48,1.32.22.47.56.92,1.01,1.35.23.21.51.38.81.5.31.12.63.19.95.19s.65-.05.97-.18c.32-.13.61-.34.87-.62.58-.64.9-1.31.94-2,.05-.69-.18-1.28-.7-1.78-.31-.3-.61-.53-.9-.7-.29-.17-.58-.29-.85-.37-.28-.07-.54-.11-.77-.11s-.46,0-.65,0l-.84-2.34,6.01-4.59,6.11,5.52-1.72,1.9-4.38-3.95-2.53,2.03c.4.03.78.13,1.14.29s.67.37.94.61h.01Z"/>
  </g>
  <path class="st2" d="M541.72,294.79c0-64.1-51.97-116.04-116.07-116.04s-116.04,51.95-116.04,116.04c0,48.34,29.53,89.75,71.53,107.2h89.03c42-17.45,71.56-58.85,71.56-107.2h-.01Z"/>
  <path class="st3" d="M764.56,401.99l-12.43,55.57h-326.49c-16.48,0-32.36-2.44-47.35-6.98-26.35-8-49.88-22.52-68.7-41.66-2.39-2.41-4.7-4.9-6.91-7.46-18.99-21.87-32.24-48.86-37.41-78.61-1.59-9.12-2.41-18.49-2.41-28.06,0-40.21,14.59-77.02,38.77-105.43,29.85-35.09,74.31-57.36,124-57.36,89.9,0,162.8,72.9,162.8,162.8,0,41.03-15.21,76.08-40.31,104.71h-77.97c42-17.45,71.56-56.37,71.56-104.71,0-64.1-51.97-116.04-116.07-116.04s-116.04,51.95-116.04,116.04c0,22.43,6.78,44.62,19.07,63.37,9.29,14.17,21.42,27.44,36.04,36.2,11.4,6.83,24.66,8.2,37.69,8.04,13.09-.16,26.11-.42,39.21-.42h322.95Z"/>
  <g>
    <path class="st1" d="M381.33,432.36l-.7,5.33h-3.13l3.21-19.93h4.34l3.33,19.93h-3.21l-.78-5.33h-3.07.01ZM384.03,429.53c-.46-3.38-.89-6.6-1.12-8.85h-.11c-.09,1.64-.69,5.91-1.08,8.85h2.31,0Z"/>
    <path class="st1" d="M408.28,431.73v.78c0,2.28-.38,5.47-4.59,5.47-3.69,0-4.47-2.31-4.47-5.35v-10.05c0-3.08,1.4-5.11,4.53-5.11,3.74,0,4.45,2.48,4.45,5.24v.89h-3.08v-1.25c0-1.32-.31-2.08-1.38-2.08s-1.39.72-1.39,2.09v10.54c0,1.3.26,2.31,1.43,2.31s1.4-.88,1.4-2.36v-1.11h3.11,0Z"/>
    <path class="st1" d="M422.63,432.36l-.7,5.33h-3.13l3.21-19.93h4.34l3.33,19.93h-3.21l-.78-5.33h-3.07.01ZM425.33,429.53c-.46-3.38-.89-6.6-1.12-8.85h-.11c-.09,1.64-.68,5.91-1.08,8.85h2.31,0Z"/>
    <path class="st1" d="M440.71,417.76h4.26c4.23,0,5.25,2.19,5.25,5.89v7.64c0,3.05-.52,6.4-5.26,6.4h-4.26v-19.93h.01ZM443.78,435.07h.99c2.02,0,2.33-1.3,2.33-3.36v-8.3c0-1.83-.32-3-2.35-3h-.97v14.67h0Z"/>
    <path class="st1" d="M469.49,428.59h-4.38v6.28h5.05l-.39,2.83h-7.73v-19.93h7.7v2.85h-4.62v5.15h4.38v2.83h0Z"/>
    <path class="st1" d="M491.46,430.28c0-3.39.04-7.6.1-9.89h-.03c-.46,3.46-1.56,11.53-2.42,17.3h-2.9c-.64-5.18-1.76-13.68-2.21-17.33h-.06c.06,2.32.15,6.83.15,10.26v7.07h-2.78v-19.93h4.58c.78,5.06,1.57,10.74,1.84,13.53h.03c.32-2.83,1.4-8.76,2.2-13.53h4.42v19.93h-2.92v-7.41Z"/>
    <path class="st1" d="M509.69,417.76v19.93h-3.07v-19.93h3.07Z"/>
    <path class="st1" d="M530.59,431.73v.78c0,2.28-.38,5.47-4.59,5.47-3.69,0-4.47-2.31-4.47-5.35v-10.05c0-3.08,1.39-5.11,4.52-5.11,3.74,0,4.45,2.48,4.45,5.24v.89h-3.08v-1.25c0-1.32-.31-2.08-1.38-2.08s-1.39.72-1.39,2.09v10.54c0,1.3.26,2.31,1.43,2.31s1.4-.88,1.4-2.36v-1.11h3.11Z"/>
    <path class="st1" d="M562.81,428.59h-4.38v6.28h5.05l-.39,2.83h-7.73v-19.93h7.7v2.85h-4.62v5.15h4.38v2.83h-.01Z"/>
    <path class="st1" d="M581.14,437.69l-1.97-7.21h-.03l-2.1,7.21h-3.18l3.53-10.14-3.37-9.79h3.4l1.84,6.59h.03l1.82-6.59h3.21l-3.35,9.33,3.58,10.59h-3.41Z"/>
    <path class="st1" d="M603.9,431.73v.78c0,2.28-.38,5.47-4.59,5.47-3.69,0-4.47-2.31-4.47-5.35v-10.05c0-3.08,1.39-5.11,4.52-5.11,3.74,0,4.45,2.48,4.45,5.24v.89h-3.08v-1.25c0-1.32-.31-2.08-1.38-2.08s-1.39.72-1.39,2.09v10.54c0,1.3.26,2.31,1.43,2.31s1.4-.88,1.4-2.36v-1.11h3.11Z"/>
    <path class="st1" d="M622.67,428.59h-4.38v6.28h5.05l-.39,2.83h-7.73v-19.93h7.7v2.85h-4.62v5.15h4.38v2.83h-.01Z"/>
    <path class="st1" d="M634.36,417.76h3.07v17.18h5.01l-.26,2.75h-7.82v-19.93Z"/>
    <path class="st1" d="M653.24,417.76h3.07v17.18h5.01l-.26,2.75h-7.82v-19.93Z"/>
    <path class="st1" d="M679.54,428.59h-4.38v6.28h5.05l-.39,2.83h-7.73v-19.93h7.7v2.85h-4.62v5.15h4.38v2.83h-.01Z"/>
    <path class="st1" d="M691.24,437.69v-19.93h3.56c.79,2.81,3.17,12.65,3.38,13.7h.03c-.14-2.45-.15-5.25-.15-8.53v-5.17h2.84v19.93h-3.42c-.63-2.38-3.28-13.31-3.48-14.15h-.03c.15,2.41.13,5.11.13,8.7v5.45h-2.86Z"/>
    <path class="st1" d="M721.77,431.73v.78c0,2.28-.38,5.47-4.59,5.47-3.69,0-4.47-2.31-4.47-5.35v-10.05c0-3.08,1.39-5.11,4.52-5.11,3.74,0,4.45,2.48,4.45,5.24v.89h-3.08v-1.25c0-1.32-.31-2.08-1.38-2.08s-1.39.72-1.39,2.09v10.54c0,1.3.26,2.31,1.43,2.31s1.4-.88,1.4-2.36v-1.11h3.11Z"/>
    <path class="st1" d="M740.54,428.59h-4.38v6.28h5.05l-.39,2.83h-7.73v-19.93h7.7v2.85h-4.62v5.15h4.38v2.83h-.01Z"/>
  </g>
  <g>
    <path class="st4" d="M595.14,374.42c-3.28,4.42-6.36,11.78-6.36,14.96,0,.76.24,1.8.52,2.56-1.33.67-3.18,1.19-4.99,1.19s-2.99-.67-2.99-2.18c0-3.66,4.23-8.88,4.84-13.72-1.57-9.78-4.7-17.43-7.22-18.57-.47-.19-.81-.43-1.19-.57,2.09-1.99,4.18-2.99,6.22-2.99,1.8,0,3.18.9,3.99,2.85,1.38,3.18,2.56,8.4,3.7,13.91,6.08-9.83,6.6-10.49,7.93-13.39.43-.9.57-1.9.57-2.9,0-.52-.05-1.09-.14-1.62.47-.09.9-.09,1.38-.09,3.37,0,5.08,1.23,5.08,3.09,0,4.84-8.26,13.44-11.35,17.47h0Z"/>
    <path class="st4" d="M616.42,384.92c.66,1.19.57,2.66-.29,3.75-.81,1-1.99,1.9-3.56,2.56-2.37,1.09-4.84,1.61-7.5,1.61-5.56,0-8.74-2.42-8.97-7.31s1.47-9.69,4.75-13.25c3.18-3.8,7.26-5.84,11.49-5.84,3.99,0,5.89,1.71,5.84,4.94,0,3.23-4.18,7.36-10.59,9.64-1.52.52-4.61,1.9-4.65,3.13-.05,1.14.09,2.14.52,2.75,1.04,1.52,2.75,2.42,4.56,2.18,3.37-.33,5.94-1.8,8.41-4.18v.02ZM603.4,380.93c.81-1.76,2.23-2.37,3.99-3.32,3.04-1.66,3.89-3.23,4.37-4.89s-.09-3.09-1.8-3.09c-2.56,0-4.7,3.28-6.08,9.16,0,0-.19.81-.48,2.14Z"/>
    <path class="st4" d="M645.53,383.68c.19,0,.24.14.24.43,0,3.47-5.03,8.64-8.4,8.64-2.61,0-4.23-1.61-4.23-5.03,0-1.14.09-2.85.24-3.85-3.56,5.79-7.03,8.79-10.16,8.93h-.52c-3.8,0-5.13-2.8-5.13-6.7.19-9.16,7.36-19.61,15.01-19.61,1.85,0,3.42.38,4.65,1.33.76-.81,1.8-1.23,2.99-1.23,1.47,0,2.85.43,4.23,1.14-1.76,2.61-4.65,14.34-4.65,18,0,.95.33,1.57.52,1.99.52-.1,1.42-.76,2.33-1.66,1.47-1.61,2.42-2.37,2.9-2.37h-.02ZM635.89,372.81c-.52-1.95-2.33-2.75-3.8-2.75-3.8,0-7.6,9.12-7.6,15.29.1,1.66.57,2.47,1.57,2.47s2.42-1.61,4.27-4.37c2.42-3.51,4.51-7.74,5.56-10.64h0Z"/>
    <path class="st4" d="M664,366.54c1.47,0,1.99.9,1.99,2.28,0,2.18-1.38,4.61-3.28,6.74-.47-.76-1.09-1.19-1.8-1.19-3.8,0-6.74,7.31-10.07,15.62-.67,1.71-1.52,2.61-3.89,2.61-.95,0-2.14-.14-3.7-.43,3.66-9.35,5.32-17.81,5.32-21.13,0-1.23-.14-2.33-.52-3.13,2.09-.9,3.75-1.33,4.99-1.33,1.47,0,2.52.9,2.52,2.42,0,1.9-.71,4.65-1.52,7.83,3.56-6.27,6.89-10.26,9.74-10.3h.24-.02Z"/>
    <path class="st4" d="M674.26,371.67c0,.95.48,1.8,1.24,2.75,2.04,2.47,4.13,4.7,4.13,8.17,0,5.7-5.22,10.11-10.97,10.11-3.28,0-7.03-2.14-7.03-5.84,0-1.61,1.04-2.61,1.9-3.09,1.09,2.94,2.94,5.56,5.79,5.7,2.23,0,3.66-1.23,3.66-3.8,0-2.23-2-3.8-3.8-5.84-1.24-1.47-1.9-3.32-1.9-5.18,0-6.13,6.17-8.79,11.63-8.79,1.71,0,2.42.33,2.71,1.42,0,.95-.43,1.8-1.85,2.8-.95-.95-1.9-1.38-2.75-1.38-1.9,0-2.75,1.09-2.75,2.94v.03Z"/>
    <path class="st4" d="M705.93,366.45c5.18,0,8.69,3.18,8.69,8.45,0,8.93-6.93,17.95-15.38,17.95-5.22,0-8.69-3.32-8.69-8.83,0-4.61,1.61-8.74,4.61-12.25,2.94-3.28,6.65-5.32,10.78-5.32h-.01ZM704.5,369.96c-4.23,0-6.98,9.12-6.98,14.58,0,2.8.85,4.84,3.13,4.84,4.18,0,6.88-9.02,6.88-14.48,0-2.8-.76-4.94-3.04-4.94h0Z"/>
    <path class="st4" d="M713.86,390.9c.38-2,3.04-15.86,3.47-17.71h-1c-1.04,0-2.61-.33-2.61-1,0-.09.05-.14.05-.19.76-2.18,1.23-2.61,4.42-2.61.19-.81.38-1.61.57-2.37,1.71-6.98,7.93-10.73,14.81-10.73,2.56,0,4.51.47,4.51,2.61,0,1.04-1.23,2.33-3.61,3.47-.85-1.8-2.09-2.71-3.61-2.71-1.19,0-2.75,1-3.47,2.04-.9,1.33-1.76,3.85-2.52,7.69h1.76c1.85,0,3.85-.33,5.51-.33.05.19.05.38.05.57,0,2.9-2.99,3.51-5.6,3.51-.86,0-1.71-.05-2.56-.05-1.19,5.22-1.99,10.73-4.08,16.76-1.61,4.65-5.22,8.4-9.88,10.16-.19.05-.33.09-.47.09-.67,0-.85-.33-.85-.71.05-.33.24-.43.52-.76,2.38-1.95,4.04-4.7,4.61-7.74h-.02Z"/>
  </g>
  <g>
    <path class="st0" d="M322.5,205.9c-.14.12-.28.13-.37.02-.1-.12-.04-.36.03-.78.24-1.63,1.53-6.57-1.15-9.68-1.98-2.29-3.31-1.58-3.96-1.02-.52.45-.85,1.01-.87,1.67,0,.53.22,1.1.53,1.51.22.31.23.45.15.51-.08.07-.2.03-.43-.2-.12-.11-1.21-1.24-1.51-1.58-.15-.17-.18-.26-.13-.46.32-.71.91-1.68,2.22-2.81,2.52-2.18,4.6-1.83,6.06-.15,2.3,2.66,1.06,6.69.53,9.03-.03.12.04.13.11.07l.72-.62c.22-.19,1.54-1.38,2.22-2.1.84-.89.79-1.47.44-2.22-.11-.2-.11-.32-.03-.38.09-.08.17-.04.33.15.15.17,1.45,2.09,1.69,2.69.17.47-.03.71-1.17,1.7l-5.4,4.67v-.02Z"/>
    <path class="st0" d="M348.07,187.37c-3.53,2.07-6.58-1-7.76-3.01-2.08-3.54-1.99-7.03,1.09-8.84,2.98-1.75,6,.06,7.67,2.9,2.36,4.02,1.83,7.29-1,8.95ZM341.63,176.59c-.84.49-1.15,1.9,1.04,5.64,1.4,2.39,3.66,4.97,5.21,4.06,1.12-.66.54-2.89-1.16-5.77-1.56-2.66-3.54-4.84-5.1-3.92h.01Z"/>
    <path class="st0" d="M372.93,175.72c-3.85,1.38-6.28-2.21-7.06-4.4-1.39-3.87-.65-7.28,2.71-8.48,3.25-1.16,5.89,1.17,7,4.27,1.57,4.39.44,7.5-2.65,8.61h0ZM368.6,163.94c-.91.33-1.49,1.66-.03,5.74.94,2.61,2.67,5.56,4.37,4.96,1.22-.44,1.06-2.74-.06-5.89-1.04-2.91-2.58-5.41-4.28-4.8h0Z"/>
    <path class="st0" d="M394.75,158.57l.05,1.61c4.16-.23,7.02.6,7.5,3.51.37,2.22-1.05,4.94-5.6,5.69-.79.13-1.59.14-2.05.04-.37-.13-.44-.3-.51-.72-.09-.55-.25-1.72-.31-2.3,0-.23.03-.37.15-.39s.21.12.24.29c.27,1.45,1.53,2.15,2.94,1.92,1.3-.21,2.64-1.17,2.31-3.16-.42-2.55-3.71-2.69-5.19-2.73-.26,0-.43-.05-.46-.33l-.28-5.21c-.03-.28.03-.37.23-.41l4.98-.82c.48-.08.78-.15,1-.22.13-.04.25-.09.3-.1.12-.02.22-.04.27.24.09.53.21,2.02.2,2.94,0,.09,0,.32-.14.34-.12.02-.17-.06-.24-.26-.14-.54-.46-.73-1.81-.51l-3.59.59h.01Z"/>
    <path class="st0" d="M424.78,160.35c.62,0,.73.06.73.18,0,.16-.21.28-.98.5-1.62.43-2.8.76-3.72,1.13-.5.21-.76.42-.95.43-.17,0-.14-.15-.11-.35l.25-1.51c.05-.31.1-.33.41-.33l4.37-.04h0Z"/>
    <path class="st0" d="M440.22,167.53c-.19-.03-.28-.13-.26-.26.02-.15.25-.26.61-.49,1.39-.89,5.96-3.17,6.54-7.24.42-3-.99-3.54-1.83-3.66-.69-.1-1.32.02-1.83.44-.4.35-.69.88-.79,1.39-.09.37-.19.46-.29.45-.1,0-.16-.13-.13-.46,0-.16.14-1.73.2-2.18.03-.22.08-.3.27-.4.75-.23,1.86-.42,3.58-.18,3.3.47,4.41,2.27,4.1,4.47-.49,3.48-4.34,5.2-6.46,6.34-.11.05-.07.11.02.12l.94.13c.29.04,2.05.25,3.04.29,1.22.05,1.63-.37,1.96-1.12.08-.22.16-.29.27-.28.12.02.14.11.11.35-.03.22-.63,2.47-.92,3.04-.24.44-.55.45-2.05.24l-7.07-1h0Z"/>
    <path class="st0" d="M471.02,174.6c-3.88-1.29-3.58-5.61-2.84-7.82,1.3-3.9,3.98-6.13,7.37-5,3.27,1.09,3.91,4.56,2.87,7.68-1.47,4.42-4.29,6.17-7.39,5.14h0ZM474.89,162.66c-.92-.31-2.19.38-3.56,4.5-.88,2.63-1.33,6.03.38,6.6,1.23.41,2.53-1.5,3.58-4.67.98-2.93,1.31-5.85-.4-6.42h0Z"/>
    <path class="st0" d="M491.07,182.53c-.17-.09-.22-.22-.15-.34.07-.14.32-.16.75-.24,1.61-.34,6.7-.86,8.67-4.47,1.46-2.66.32-3.66-.43-4.07-.61-.33-1.24-.44-1.87-.23-.5.18-.95.59-1.23,1.03-.21.32-.34.37-.43.32-.09-.05-.1-.17.04-.47.06-.15.74-1.57.96-1.97.11-.2.18-.26.39-.28.78.05,1.89.26,3.41,1.09,2.92,1.6,3.33,3.68,2.26,5.62-1.69,3.09-5.89,3.34-8.28,3.65-.12,0-.1.08-.03.12l.84.46c.26.14,1.83.96,2.74,1.34,1.12.48,1.65.23,2.23-.36.15-.17.26-.22.35-.17.11.06.1.15-.02.36-.11.2-1.46,2.09-1.93,2.52-.38.33-.68.22-2-.5l-6.27-3.43v.02Z"/>
    <path class="st0" d="M522.12,189.76l-1.16,1.11c2.94,2.95,4.22,5.64,2.37,7.93-1.42,1.75-4.38,2.5-7.97-.4-.62-.5-1.16-1.1-1.39-1.5-.15-.37-.07-.52.2-.86.35-.43,1.12-1.33,1.51-1.76.17-.15.3-.23.39-.15s.05.24-.06.38c-.9,1.17-.59,2.58.52,3.47,1.03.83,2.63,1.19,3.89-.38,1.62-2.01-.46-4.56-1.42-5.69-.18-.19-.25-.36-.06-.56l3.7-3.67c.19-.21.3-.23.46-.1l3.92,3.17c.38.31.63.49.83.6.12.07.24.12.28.16.09.08.17.14,0,.36-.34.42-1.37,1.5-2.06,2.11-.07.06-.24.21-.34.12-.09-.08-.07-.17.04-.35.31-.46.25-.83-.82-1.69l-2.83-2.29h0Z"/>
  </g>
  <path class="st1" d="M531.89,374.09c2.85-1.47,5.34-3.44,7.61-5.64-.02.05-.02.13-.01.18-.15.29.15.59.44.56,4.45,4.61,11.07,1.29,14.42-3.06.27-.35.03-.83-.42-.84-2.99-.04-6.03-1.19-9.03-.68-1.16.19-2.09.66-2.94,1.28,1.15-1.26,2.24-2.55,3.31-3.88,1.32-1.62,2.63-3.27,3.9-4.95.03.05.06.12.14.16,4.26,2.76,10.15,1.04,13.12-2.81.18-.21.17-.64-.14-.76-2.63-1.06-5.4-1.39-8.16-.75-.71.16-1.64.4-2.5.8,1.48-2.06,2.91-4.19,4.23-6.37.16.11.31.13.45.04,5.31,1.87,11.03-1.17,13.03-6.42.15-.36-.06-.77-.48-.76-3.58.18-7.75.66-10.57,2.88,1.48-2.78,2.72-5.63,3.79-8.55.03.02.06.07.1.07.23.11.46.16.69.22.04.22.23.43.5.31.07-.03.17-.09.26-.12,4.53.86,8.85-2.54,9.35-7.25.05-.33-.17-.61-.52-.61-3.24-.04-7.01.88-9.03,3.38.87-2.94,1.58-5.91,2.11-8.94.11.09.21.11.33.07,5.65-2.02,8.98-7.84,8.22-13.71-.03-.35-.42-.59-.73-.37-1.96,1.38-3.99,2.83-5.19,4.97-1.29,2.25-1.87,5.11-2.33,7.69.03-.28.06-.55.06-.83.71-4.89.97-9.85.77-14.82.11.07.23.11.35.07.05.02.13.02.2-.02,5.55-1.76,8.71-7.74,7.82-13.36-.02-.27-.32-.6-.63-.45-3.83,1.75-6.92,5.13-8,9.16-.33-3.54-.86-7.06-1.61-10.54.23.08.52-.02.66-.23.02-.03.07-.08.09-.13,2.68-.51,4.85-2.68,5.9-5.18.59-1.42,1.96-6.69.07-7.63-1.79-.91-4.76,2.84-5.54,4.08-1.22,1.94-1.82,4.13-1.74,6.32-.03-.1-.09-.22-.15-.31-.33-1.35-.66-2.64-1.06-3.96-.54-1.83-1.16-3.62-1.8-5.39-.11-.39-.18-.76-.27-1.15.02-.05.04-.13,0-.2,4.19-4.02-2.11-10.28-5.17-12.73-.32-.25-.84-.21-.95.25-.57,2.61-1.14,5.45-.14,8.04.9,2.3,2.84,3.81,5.04,4.79.45.2.39,1.25.47,1.64.16.79.44,1.58.7,2.34.19.57.38,1.15.57,1.73.12.37.22,1.3.48,1.57-1.95-1.94-4.61-3.15-7.44-3.33-.33-.02-.54.37-.45.63,1.53,4.27,4.25,8.69,9.33,8.59h.07c.78,3.52,1.36,7.12,1.72,10.7-1.59-3.39-4.61-5.99-8.34-7.09-.38-.09-.6.3-.53.59.56,2.65.36,5.76,2.1,7.99,1.69,2.16,4.53,2.73,7.08,3.11.17,3.7.06,7.42-.29,11.17-1.06-2.98-3.38-5.52-6.26-6.91-.26-.13-.57.02-.62.3-.9,4.09,1.61,11.22,6.12,12.41-.43,2.48-.98,4.89-1.67,7.26-.84-3-3.36-5.57-6.47-6.52-.23-.08-.59.12-.59.4-.33,3.74.76,10.59,5.26,11.63-.91,2.42-1.94,4.79-3.1,7.13.25-2.81-.94-5.63-3.36-7.54-.24-.21-.56-.13-.71.13-1.46,2.31-2.05,5-1.56,7.7.23,1.38,1.04,4.7,2.83,4.84-.48.81-.97,1.62-1.48,2.41-1.09,1.68-2.2,3.39-3.39,5.1,1.2-3.41.47-7.24-1.85-10.1-.17-.21-.55-.33-.75-.07-2.8,3.99-3.79,9.77.6,12.97-2.09,2.88-4.34,5.7-6.77,8.29,1.6-3.44,1.93-7.43-1.26-10.25-.24-.21-.56-.11-.71.13-2.38,3.58-4.57,9.41-.78,12.85-2.25,2.1-4.67,3.98-7.27,5.51-.53.29-.02,1.02.48.76h0ZM559.85,274.87c-2.03-1.11-3.84-2.56-4.41-4.96-.44-1.81-.1-3.73.28-5.56.03.02.05.05.08.07,1.01,3.64,2.33,7.12,4.04,10.45h0ZM560.56,274.99c-1.42-3.1-2.64-6.27-3.6-9.54,2.74,2.55,5,5.81,3.6,9.54ZM555.46,281.45c2.68,1.78,5.15,4.01,6.96,6.68-3.58-.47-5.61-3.52-6.96-6.68ZM563.07,287.5c-1.88-2.32-3.86-4.41-6.27-6.16,2.37.69,4.33,2.15,5.76,4.11.18.68.36,1.37.51,2.05h0ZM566.34,287.87c1.87-2.89,3.53-5.86,5-8.95.15,1.88-1.04,5.14-1.35,5.69-.9,1.54-2.17,2.56-3.66,3.26h0ZM565.31,287.73c-.23-1.9.02-3.82.85-5.6.49-1.01,2.7-4.7,4.2-4.57.22,0,.38.09.54.23-1.65,3.45-3.5,6.76-5.6,9.94h.01ZM567.76,303.61c2.14-3.78,4.29-7.57,6.38-11.37.41,4.83-2.17,9.07-6.38,11.37ZM566.65,304.05c.01-.15,0-.3,0-.42.02-.03.02-.05.02-.08.6-4.73,2.72-8.74,6.8-11.11-2.31,3.85-4.58,7.72-6.81,11.61h-.01ZM557.5,293.98c-.04.08-.04.15,0,.25,1.59,3.74,4.11,6.83,7.34,9.22-2.64-.54-5.34-1.35-6.43-4.1-.66-1.69-.76-3.6-1.05-5.43.05.02.1.04.15.06h-.01ZM565.47,303.3c-3.11-2.4-5.49-5.43-7.14-8.98,3.49,1.54,6.04,4.56,7.08,8.22l.06.77h0ZM572.79,309.17c-.21,1.81-2.17,3.76-3.15,5.21-.78,1.16-1.59,2.32-2.36,3.53.25-.89.51-1.79.79-2.68.88-2.76,2.57-4.44,4.73-6.06h0ZM566.42,320.7c.06-.15.1-.33.16-.49,1.63-2.12,2.99-4.47,4.43-6.71.84-1.34,2.46-2.94,2.15-4.63.02,0,.05,0,.05-.03.29,4.99-2.39,9.51-6.79,11.86ZM564.79,319.36c-1.8-2.92-3.44-5.94-4.9-9.06,2.73,1.75,4.44,4.46,5.11,7.55-.01.18-.02.35-.06.53-.05.33-.1.66-.15.98h0ZM564.63,320.49c-3.58-1.19-5.64-6.44-5.51-10.16,1.54,3.44,3.42,6.69,5.56,9.78l-.05.38ZM565.43,334.11c2.12-1.19,4.17-2.72,5.99-4.36-1.05,2.53-3.34,4.08-5.99,4.36ZM562.91,334.01s.02-.05.04-.08c.93-4.31,5.01-5.68,8.92-5.74-.02.1-.03.2-.07.33-1.27,1-2.53,2.02-3.91,2.93-1.4.96-2.93,1.75-4.35,2.64-.2,0-.43-.04-.63-.07h0ZM561.71,332.14c-1.28-2.92-2.75-5.77-4.38-8.48,3.1,1.4,4.62,4.22,4.73,7.45-.1.33-.22.69-.34,1.02h0ZM561.33,333.29c-3.42-1.6-4.69-5.66-4.67-9.3,1.68,2.93,3.26,5.9,4.8,8.95-.04.1-.08.23-.12.36h-.01ZM557.64,346.8c3.43-1.44,6.84-3.06,10.09-4.86-2.08,3.7-5.93,5.36-10.09,4.86ZM556.73,346.67c2.03-4.25,6.73-5.09,11.09-5.36-3.46,1.64-6.92,3.29-10.41,4.84-.29.12-.29.45-.13.61-.2-.03-.38-.04-.55-.08h0ZM554.78,335.28c2.76,2.77,2.98,6.75.8,10.13-.47-3.38-.66-6.73-.8-10.13ZM555.12,345.62c-1.59-.82-2.06-4.28-2.1-5.72-.03-1.67.37-3.22,1.1-4.67-.1,3.45.33,6.98,1,10.39ZM550.31,356.9l.09-.08c3.62-.51,7.27-1.35,10.75-2.52.02,0,.05,0,.08.02-2.82,3.16-6.97,3.87-10.92,2.58h0ZM549.97,356.15c1.22-.67,1.99-1.58,3.36-2.01.92-.32,1.88-.5,2.85-.55,1.39-.08,2.72.06,4.05.43-3.3.86-6.61,1.57-9.98,2.09-.1-.02-.2,0-.27.05h0ZM548.27,345.37c1.87,2.79,2.11,6.19.81,9.31-.29-3.09-.52-6.22-.81-9.31ZM548.2,355.47c-2.77-2.57-2.35-6.45-.71-9.64.23,3.22.51,6.44.71,9.64ZM551.86,366.13c-3.51,1.27-6.98,1.85-10.74,1.92,1.76-1.76,3.5-2.74,6.36-2.52,1.48.11,2.92.39,4.39.6h-.01ZM540.68,368.83c4.16.22,8.42-.72,12.19-2.48-3.16,3.52-8.17,5.78-12.19,2.48ZM540.36,365.69c-.04-3.01.02-6.06.18-9.09,2.03,2.68,1.28,6.13-.18,9.09ZM539.28,367.25c-2.61-3.63-1.69-7.45.47-11.03-.1,3.5-.1,6.99.06,10.49,0,0-.02.03-.02.05-.16.16-.35.33-.51.49h0Z"/>
  <path class="st1" d="M317,373.33c-2.6-1.53-5.02-3.41-7.27-5.51,3.79-3.44,1.61-9.27-.78-12.85-.16-.24-.47-.34-.71-.13-3.19,2.81-2.86,6.81-1.26,10.25-2.44-2.59-4.68-5.41-6.77-8.29,4.39-3.19,3.4-8.98.6-12.97-.2-.27-.59-.15-.75.07-2.32,2.86-3.05,6.69-1.85,10.1-1.19-1.71-2.3-3.42-3.39-5.1-.51-.79-1-1.6-1.48-2.41,1.78-.13,2.59-3.46,2.83-4.84.49-2.7-.1-5.39-1.56-7.7-.15-.26-.47-.34-.71-.13-2.42,1.9-3.61,4.73-3.36,7.54-1.16-2.34-2.2-4.71-3.1-7.13,4.5-1.04,5.58-7.89,5.26-11.63,0-.27-.36-.48-.59-.4-3.12.95-5.64,3.52-6.47,6.52-.69-2.37-1.24-4.79-1.67-7.26,4.51-1.19,7.02-8.32,6.12-12.41-.05-.28-.37-.43-.62-.3-2.88,1.39-5.2,3.93-6.26,6.91-.35-3.74-.46-7.47-.29-11.17,2.55-.37,5.39-.95,7.08-3.11,1.75-2.23,1.54-5.34,2.1-7.99.07-.29-.15-.68-.53-.59-3.73,1.1-6.75,3.7-8.34,7.09.36-3.59.94-7.18,1.72-10.71h.07c5.08.11,7.8-4.31,9.33-8.58.1-.27-.12-.66-.45-.63-2.83.18-5.49,1.39-7.44,3.33.26-.26.37-1.2.48-1.57.18-.58.37-1.15.57-1.73.26-.76.54-1.55.7-2.34.08-.39.03-1.44.47-1.64,2.2-.97,4.14-2.49,5.04-4.79,1-2.59.43-5.43-.14-8.04-.11-.46-.63-.5-.95-.25-3.06,2.45-9.36,8.71-5.17,12.73-.03.07-.01.15,0,.2-.08.39-.16.76-.27,1.15-.64,1.77-1.25,3.57-1.8,5.39-.4,1.31-.73,2.61-1.06,3.96-.06.1-.12.22-.15.31.07-2.19-.53-4.38-1.74-6.32-.78-1.23-3.74-4.98-5.54-4.08-1.89.95-.52,6.22.07,7.63,1.05,2.5,3.22,4.67,5.9,5.18.02.05.07.1.09.13.13.21.42.31.66.23-.75,3.48-1.28,7-1.61,10.54-1.08-4.02-4.18-7.41-8-9.16-.31-.15-.61.18-.63.45-.89,5.61,2.27,11.6,7.82,13.36.07.03.15.04.2.02.12.03.25,0,.35-.07-.19,4.97.06,9.93.77,14.82,0,.27.03.55.06.83-.47-2.58-1.04-5.44-2.33-7.69-1.2-2.14-3.23-3.6-5.19-4.97-.31-.22-.7.02-.73.37-.76,5.87,2.57,11.7,8.22,13.71.12.03.22.02.33-.07.53,3.03,1.25,6.01,2.11,8.94-2.02-2.5-5.79-3.42-9.03-3.38-.35,0-.57.28-.52.61.5,4.7,4.82,8.11,9.35,7.25.1.03.19.09.26.12.26.12.46-.09.5-.31.23-.06.46-.11.69-.22.05,0,.08-.04.1-.07,1.07,2.93,2.31,5.77,3.79,8.55-2.82-2.22-6.99-2.7-10.57-2.88-.42,0-.63.4-.48.76,2,5.24,7.72,8.29,13.03,6.42.14.09.29.07.45-.04,1.32,2.17,2.75,4.31,4.23,6.37-.87-.39-1.79-.64-2.5-.8-2.77-.64-5.54-.31-8.16.75-.31.13-.32.55-.14.76,2.96,3.85,8.86,5.56,13.12,2.81.08-.04.11-.12.14-.16,1.26,1.67,2.58,3.32,3.9,4.95,1.07,1.33,2.16,2.61,3.31,3.88-.85-.62-1.78-1.09-2.94-1.28-3-.51-6.03.65-9.03.68-.45.01-.69.49-.42.84,3.35,4.35,9.97,7.67,14.42,3.06.3.02.6-.28.44-.56,0-.05,0-.12-.01-.18,2.27,2.2,4.76,4.17,7.61,5.64.5.26,1.01-.47.48-.76h-.01ZM292.6,264.42s.05-.05.08-.07c.38,1.82.73,3.75.28,5.56-.56,2.4-2.37,3.85-4.41,4.96,1.71-3.33,3.03-6.82,4.04-10.45h.01ZM291.45,265.45c-.96,3.27-2.18,6.43-3.6,9.54-1.4-3.73.85-6.99,3.6-9.54ZM285.99,288.13c1.81-2.67,4.28-4.9,6.96-6.68-1.35,3.16-3.38,6.21-6.96,6.68ZM285.85,285.45c1.43-1.96,3.39-3.42,5.76-4.11-2.41,1.75-4.39,3.84-6.27,6.16.15-.69.33-1.37.51-2.05h0ZM278.42,284.61c-.31-.55-1.49-3.81-1.35-5.69,1.48,3.08,3.14,6.06,5,8.95-1.49-.69-2.76-1.71-3.66-3.26h.01ZM277.51,277.78c.16-.14.32-.22.54-.23,1.51-.13,3.71,3.56,4.2,4.57.83,1.79,1.08,3.7.85,5.6-2.09-3.18-3.95-6.5-5.6-9.94h0ZM274.27,292.24c2.09,3.81,4.24,7.59,6.38,11.37-4.21-2.3-6.79-6.55-6.38-11.37ZM274.95,292.44c4.08,2.37,6.2,6.37,6.8,11.11,0,.02,0,.05.02.08,0,.12-.02.27,0,.42-2.24-3.89-4.5-7.76-6.81-11.61h0ZM291.07,293.91c-.29,1.82-.39,3.73-1.05,5.43-1.09,2.76-3.8,3.56-6.43,4.1,3.23-2.39,5.74-5.48,7.34-9.22.03-.1.04-.17,0-.25.05-.02.1-.04.15-.06h-.01ZM283.01,302.53c1.04-3.66,3.59-6.67,7.08-8.22-1.65,3.56-4.04,6.59-7.14,8.98l.06-.77h0ZM280.36,315.23c.28.89.53,1.79.79,2.68-.78-1.21-1.58-2.37-2.36-3.53-.98-1.45-2.95-3.4-3.15-5.21,2.17,1.62,3.85,3.3,4.73,6.06h-.01ZM275.2,308.84s.02.03.05.03c-.31,1.7,1.31,3.29,2.15,4.63,1.44,2.23,2.8,4.58,4.43,6.71.06.15.1.33.16.49-4.4-2.34-7.09-6.87-6.79-11.86h0ZM283.48,318.37c-.04-.18-.05-.35-.06-.53.67-3.09,2.38-5.8,5.11-7.55-1.47,3.13-3.1,6.14-4.9,9.06-.05-.33-.1-.66-.15-.98ZM283.74,320.11c2.14-3.1,4.02-6.34,5.56-9.78.13,3.73-1.93,8.97-5.51,10.16l-.05-.38ZM276.99,329.75c1.82,1.64,3.86,3.17,5.99,4.36-2.65-.28-4.94-1.84-5.99-4.36ZM284.88,334.09c-1.43-.89-2.96-1.68-4.35-2.64-1.37-.91-2.64-1.93-3.91-2.93-.04-.13-.06-.23-.07-.33,3.91.06,7.99,1.43,8.92,5.74.02.03.02.05.04.08-.2.03-.43.07-.63.07h0ZM286.36,331.11c.11-3.23,1.63-6.05,4.73-7.45-1.64,2.71-3.11,5.56-4.38,8.48-.12-.33-.24-.69-.34-1.02h-.01ZM286.96,332.93c1.54-3.04,3.12-6.01,4.8-8.95.01,3.64-1.26,7.7-4.67,9.3-.04-.13-.08-.26-.12-.36h0ZM280.69,341.94c3.25,1.8,6.66,3.42,10.09,4.86-4.15.49-8.01-1.16-10.09-4.86ZM291.13,346.75c.16-.16.16-.49-.13-.61-3.49-1.55-6.95-3.19-10.41-4.84,4.37.27,9.06,1.12,11.09,5.36-.18.04-.35.05-.55.08h0ZM292.83,345.41c-2.18-3.39-1.96-7.36.8-10.13-.14,3.4-.33,6.76-.8,10.13ZM294.29,335.23c.73,1.45,1.13,3.01,1.1,4.67-.04,1.44-.51,4.9-2.1,5.72.67-3.41,1.1-6.94,1-10.39ZM287.19,354.32s.05-.02.08-.02c3.47,1.17,7.12,2.01,10.75,2.52l.09.08c-3.94,1.28-8.1.58-10.92-2.58h0ZM298.17,356.11c-3.37-.52-6.68-1.23-9.98-2.09,1.33-.37,2.66-.51,4.05-.43.97.05,1.93.23,2.85.55,1.36.43,2.14,1.34,3.36,2.01-.07-.06-.17-.06-.27-.05h0ZM299.33,354.68c-1.3-3.12-1.06-6.52.81-9.31-.29,3.09-.52,6.22-.81,9.31ZM300.93,345.83c1.64,3.2,2.06,7.07-.71,9.64.2-3.2.48-6.42.71-9.64ZM300.94,365.53c2.86-.22,4.6.76,6.36,2.52-3.76-.07-7.23-.65-10.74-1.92,1.46-.21,2.91-.49,4.39-.6h-.01ZM295.54,366.35c3.77,1.77,8.04,2.7,12.19,2.48-4.03,3.3-9.03,1.03-12.19-2.48ZM307.88,356.6c.16,3.03.22,6.08.18,9.09-1.46-2.96-2.21-6.41-.18-9.09ZM308.62,366.76l-.02-.05c.15-3.5.15-6.99.06-10.49,2.16,3.59,3.08,7.4.47,11.03-.16-.16-.35-.33-.51-.49h0Z"/>
</svg>